<svg version="1.2" xmlns="http://www.w3.org/2000/svg" viewBox="0 0 510 279" width="510" height="279">
	<title>Logo-Motorhome-Alpha-sin-fondo-svg</title>
	<style>
		.s0 { opacity: .4;fill: #000000 } 
	</style>
	<path id="Layer" fill-rule="evenodd" class="s0" d="m271.5 87.6q-2.4 1.9-4.9 3.8c-0.5 0.4-0.4-0.5-0.2-0.6q5.5-8.4-2.6-14.2-0.1-0.1-0.2-0.2-0.2 0-0.3 0-0.1-0.1-0.2-0.1-0.1 0-0.2 0-4.7 0.4-1 3.3 0.4 0.4-0.1 0.5c-4.6 1.8-7.7-4.5-3.5-7.1 1.5-0.9 1.8-2-0.6-1.8q-0.1 0-0.3 0-0.1 0-0.2 0-0.1-0.1-0.2-0.1-0.1-0.1-0.2-0.1c-4.1-3.3-8.5-13.1-0.3-14.7q0.1-0.1 0.3-0.1 0.1 0 0.2 0.1 0.2 0 0.3 0 0.1 0.1 0.2 0.2 3.5 2 6.9-0.3 0.2-0.1 0.3-0.1 0.1-0.1 0.2-0.1 0.2 0 0.3 0 0.1 0 0.2 0 0.7 0.3 0.1 0.8-2.5 2.3-3.9 4.8 0 0.1-0.1 0.2 0 0.1 0 0.2-0.1 0.1-0.1 0.2 0 0.2 0 0.3c0.7 6.8-4.3-7-4.9 1q0 0.1 0 0.3 0 0.1 0 0.2 0 0.1 0.1 0.2 0 0.1 0.1 0.2c1.6 2.4 4.4 4 5.9 5.3 1.9 1.8 3.8 4.2 6.4 5.1q1.3 0.5 0.5-1.1l-3.7-7.7q-0.1-0.1-0.1-0.2 0-0.1 0-0.3 0-0.1 0-0.2 0-0.2 0-0.3 1-2.9 3.3-5 8.7-7.6 16.3-15.7 0.2-0.2 0.4-0.3 0.3-0.2 0.6-0.1 0.3 0 0.5 0.1 0.3 0.1 0.4 0.4c7.7 9.8 6.1 20.1-0.7 30.2q-0.1 0.1-0.1 0.2 0 0.1 0 0.2 0 0.1 0 0.2 0 0.1 0.1 0.2 2.9 5.5 3.9 11.6 0 0.5-0.2 0.1l-7.2-11.4q-0.1-0.1-0.1-0.2 0-0.1 0-0.2 0-0.1 0-0.3 0-0.1 0.1-0.2c4.4-7.2 7-13.1 5-21.8q-0.4-1.5-1.4-0.4-5.2 5.5-11.1 10.9c-1.7 1.5 0.1 1.5 0.9 1.1 0.8-0.5 6.6-3.6 7-3q0 0 0.1 0.1 0 0.1-0.1 0.3 0 0.1-0.1 0.2-0.1 0.1-0.2 0.1c-1 0.8-7.3 4.7-6.8 5.6q0 0.1 0.1 0.2 0.1 0.1 0.2 0.1 0 0 0.2 0 0.1 0 0.1 0l4.9-2.6q0.1-0.1 0.2-0.1 0.1 0 0.2 0.1 0.1 0 0.1 0.1 0.1 0.1 0.1 0.2c0.3 0.8-5.1 3.3-3.8 4.1q0.1 0 0.2 0 0.1 0 0.2 0 0.1 0 0.1-0.1 0.1 0 0.2-0.1c0.8-0.5 3.5-2.3 3.5-1.3q0 0-0.1 0.1 0 0.1-0.1 0.2 0 0.1-0.1 0.2-0.1 0.1-0.2 0.2c-7.9 5.6 2 15.7 6.1 21.6q0.4 0.5 0.3 1-0.1 0.5-0.6 0.1l-10.3-11.7q-0.1-0.1-0.2-0.2-0.1-0.1-0.2-0.1-0.2-0.1-0.3-0.1-0.1 0-0.2 0c-2 0.3 14.2 19.5 15.4 21.2 3.5 4.9 5.5 16-4.3 15.6q-0.1-0.1-0.2 0-0.1 0-0.2 0.1-0.1 0-0.1 0.1 0 0.1 0 0.2 0.3 2 1.6 3.5 0.1 0.1 0.3 0.2 0.3 0.1 0.5 0.1 0.3 0 0.5-0.1 0.2-0.1 0.3-0.3c0.1-0.2 2.9-6.2 2.6-1.8q-0.6 9.8-1.9 19.4-0.1 0.3-0.3 0.1-0.1 0-0.1-0.1-0.1 0-0.1-0.1-0.1 0-0.1-0.1 0-0.1 0-0.1-2.4-12.3-8.1-23.4c-1.5-3-1.7-5.3 0.2-8q2.2-3.3 4.1-1.5 3.3 3.1-0.3 5.3-0.1 0.1-0.2 0.2-0.2 0.1-0.3 0.2-0.1 0.1-0.1 0.1-0.1 0.1-0.1 0.1-0.1 1.2 1 1.1 0.1-0.1 0.2-0.1 0.2 0 0.3-0.1 0.1-0.1 0.2-0.2 0.1-0.1 0.2-0.2 1.9-2.2 1 0.7c-0.4 1.4 0.9 0.9 1.2 0.4q1.8-3 0.2-5.9-4.1-7.8-7.1-11.4c-1.2-1.5-2.6-0.7-1.9 1.1q0.9 2.8 3.1 4.6 0.7 0.6-0.2 0.6l-2.2-0.1q-0.1 0-0.2 0.1-0.1 0.1-0.2 0.2-0.1 0.1-0.2 0.2 0 0.2 0 0.4-0.5 10-8.9 15.4-0.1 0.1-0.2 0.1-0.1 0.1-0.2 0.1-0.1 0-0.2 0-0.1 0-0.2 0-0.5-0.1 0.3-0.9 3.9-3.5 6.3-8.4 0.2-0.3 0.3-0.6 0-0.2 0.1-0.5 0-0.3 0-0.6 0-0.3 0-0.6-0.3-1.5-1-1.6 0 0-0.1 0-0.1 0.1-0.2 0.1 0 0.1-0.1 0.2 0 0.1 0 0.3c0.1 4.1-4.2 8.6-7 11.4q-0.1 0-0.2 0.1-0.1 0.1-0.2 0.1-0.1 0-0.2 0 0 0-0.1 0c-0.8-0.5 6.1-7.4 3.4-7.3q-0.1 0-0.3 0-0.1 0.1-0.2 0.1-0.1 0.1-0.2 0.2-0.1 0.1-0.1 0.2c-0.6 0.7-3.8 6.2-4.5 5.3q-0.1-0.1-0.1-0.2 0-0.1 0-0.2 0-0.1 0-0.2 0-0.1 0.1-0.2 1-1.3 1.3-2.9 0-0.1 0-0.2-0.1-0.1-0.1-0.2-0.1-0.1-0.2-0.2-0.1-0.1-0.2-0.1c-1-0.4-1.9 4.7-2.7 2.5-0.3-0.8 0.5-1.9-0.8-2q-0.1 0-0.2 0-0.1 0-0.2 0.1 0 0.1-0.1 0.2 0 0.1-0.1 0.2c-0.5 5.2 3.3 11.5 9.4 8.2 9.5-4.9 16.1 7.9 5.3 12.8q-3.1 1.5-5.4 5.5-0.1 0.1-0.1 0.2-0.1 0.1-0.1 0.3-0.1 0.1-0.1 0.2 0 0.1 0 0.3c0.7 9.8 12.4 6.4 11.3 0.5q0-0.1 0-0.3-0.1-0.1-0.1-0.2-0.1-0.1-0.2-0.2-0.1-0.1-0.1-0.1-3.8-2-3.7 2.2 0 0.2 0 0.3 0 0.2-0.1 0.3 0 0.1-0.1 0.2-0.1 0.1-0.2 0.2c-2.3 1.6-4.6-0.1-4-2.7 1-4.1 4.3-3.4 6.6-5.1q1.7-1.3 2.7-3.3 0.4-0.7 0.5 0.1c2 11.4-0.8 19.8-8.7 28.1q0 0.1-0.1 0.1-0.1 0.1-0.2 0.1 0 0-0.1 0-0.1 0-0.2 0l-0.1-0.1q-0.1 0-0.1 0-0.1-0.1-0.1-0.1 0-0.1 0.1-0.2 0 0 0-0.1 2.8-3.9 4.3-8.5 0-0.2 0.1-0.3 0-0.2 0-0.3 0-0.2-0.1-0.3 0-0.1-0.1-0.1-1.5-0.6-3-0.1-0.1 0-0.1 0.1-0.1 0-0.2 0.2 0 0.1-0.1 0.2-0.1 0.1-0.1 0.3-5 12.6-16.1 20.5 0 0-0.1 0 0 0-0.1 0 0 0 0 0-0.1 0-0.1 0l-0.1-0.1q0-0.1 0-0.1-0.1 0-0.1 0 0-0.1 0-0.1 0.1 0 0.1 0 8.3-8 12.8-19.3 1.4-3.4-1.4-4.8-0.1 0-0.2 0-0.1 0-0.2 0-0.1 0-0.2 0.1-0.1 0.1-0.1 0.2-3.1 8.6-8.8 15.7-0.1 0.1-0.2 0.2 0 0.1-0.1 0.3 0 0.1 0 0.2-0.1 0.1-0.1 0.3l0.1 2q-0.1 0.1-0.1 0.1 0 0.1-0.1 0.2-0.1 0.1-0.2 0.1-0.1 0-0.1 0-2.3 0-4.2-1-0.1 0-0.2-0.1-0.1 0-0.2 0-0.1 0-0.3 0-0.1 0.1-0.2 0.1-1.6 0.5-2 2 0 0.2 0 0.3 0.1 0.1 0.1 0.2 0.1 0 0.2 0.1 0.1 0 0.3 0 0.6-0.2 1.1 0.3 0.1 0 0.1 0.1 0.1 0.1 0.1 0.2 0 0.1-0.1 0.3 0 0.1-0.1 0.2l-4.5 11.5q-0.5 1.3-1 0l-4.6-11.5q0-0.1 0-0.2 0-0.1 0.1-0.2 0-0.1 0.1-0.2 0-0.1 0.2-0.2 2.4-1.8-0.9-3.2-0.2-0.1-0.3-0.1-0.1 0-0.2 0-0.1 0-0.2 0-0.1 0-0.2 0.1-1.5 1-3.4 1.3-0.1 0.1-0.3 0-0.1 0-0.2-0.1-0.1 0-0.2-0.1-0.1-0.1-0.1-0.2l0.1-1.8q0-0.1-0.1-0.3 0-0.1 0-0.2-0.1-0.1-0.1-0.2-0.1-0.1-0.2-0.2-6.5-6.6-8.9-15.6 0-0.1-0.1-0.2 0-0.2-0.1-0.2-0.1-0.1-0.2-0.2-0.2 0-0.3 0c-2.3 0.1-2.8 2.1-2.1 4q3.8 10.5 11.6 18.4 0.4 0.4-0.1 0.2c-6.5-3.2-12-12.1-14.8-18.8q0-0.1-0.1-0.2-0.1-0.1-0.1-0.2-0.1-0.1-0.2-0.1-0.1-0.1-0.2-0.2c-6.4-2.6-0.4 6.8 0.5 8.6q0.1 0.1 0.1 0.2 0 0.1 0 0.2 0 0.1-0.1 0.2 0 0.1-0.1 0.1c-1.4 0.7-7.4-10.7-8-12.3-2.1-4.9-1.9-9.3-0.8-14.3q0.2-1.1 1-0.2l2.7 3.2q0 0 0.1 0.1 0.1 0 0.2 0 0.1 0.1 0.3 0.1 0.1 0 0.3 0 5.2 0.4 5.6 5.6 0 0.1 0 0.2-0.1 0.1-0.1 0.2 0 0.1-0.1 0.2 0 0.1-0.1 0.2-2.1 1.9-4.3 0.2-0.1-0.1-0.1-0.2-0.1 0-0.1-0.2-0.1-0.1-0.1-0.2-0.1-0.1-0.1-0.3-0.3-2.4-2.6-1.9-0.1 0-0.2 0.1-0.1 0-0.2 0.1-0.1 0.1-0.2 0.2 0 0.1-0.1 0.2c-2.5 5.8 10.4 9.2 10.7 0.3 0.2-7.8-11.7-6.5-10.8-15.1 0.8-6.4 7.3-7.2 12-4.4q1.5 0.9 3.1 0.2 5.2-2.5 4.6-8.3 0-0.1-0.1-0.1 0-0.1-0.1-0.1 0-0.1-0.1-0.1-0.1 0-0.1 0.1-2.5 1.3-2.5-0.2-1-1.6-1.6-0.4 0 0.1 0 0.2 0 0.1 0 0.2 0 0.2 0 0.3 0.1 0.1 0.2 0.2c0.1 0.2 1.8 2.1 1.3 2.3q-0.1 0-0.1 0-0.1 0-0.2 0 0 0-0.1-0.1-0.1 0-0.2-0.1c0 0-7-8.6-4.6-3.2 0.6 1.5 2.8 3.4 4 4.6q0.1 0.1 0.1 0.2 0 0 0 0.1 0 0.1 0 0.2-0.1 0-0.1 0.1c-1.8 1-7.5-8.5-8.1-10q0-0.1-0.1-0.2-0.1-0.1-0.1-0.2-0.1 0-0.2-0.1-0.1 0-0.2 0c-4.1-0.3 5.9 10.7 6.1 10.9 1 0.9 1.5 2.2-0.9 0.7-5.8-3.7-8.1-9.5-9.3-15.8q0-0.2-0.1-0.4-0.2-0.1-0.3-0.2-0.2-0.2-0.4-0.2-0.2 0-0.3 0-1.5 0.4-1.9 0.1-0.1-0.1-0.1-0.2 0-0.1 0.1-0.2 0-0.1 0.1-0.2 0.1-0.1 0.2-0.2 2.8-2 3.1-3.9c0.5-2.7-1.5-1.2-2.1-0.5q-5.1 6.2-7.5 13.7-0.1 0.1-0.1 0.2 0 0.2 0 0.3 0 0.1 0 0.2 0.1 0.1 0.1 0.3l0.6 0.9q0.1 0.1 0.2 0.2 0.1 0.1 0.2 0.2 0.1 0.1 0.2 0.1 0.1 0 0.2 0c1.4-0.1-0.6-1.7 0.1-2.1q0.1 0 0.2 0 0 0 0.2 0.1 0.1 0 0.2 0.1 0.1 0.1 0.2 0.2l1.6 1.2q0.1 0 0.2 0 0.1 0.1 0.2 0.1 0.1-0.1 0.2-0.1 0.2 0 0.3-0.1 1-0.4-0.2-1.2-2.7-2-1.5-5 0.1-0.1 0.2-0.2 0-0.1 0.1-0.1 0.1-0.1 0.2-0.2 0.1 0 0.2 0c8.3-1.2 5.7 7.3 3.5 11.7-3.5 7-5.9 14.7-7.5 22.1q-0.5 1.9-0.8 0.1-1.7-10.1-0.6-20.3 0-0.1 0-0.3 0.1-0.1 0.1-0.2 0.1-0.1 0.2-0.2 0 0 0.1 0 0.2-0.1 0.4 0 0.1 0 0.1 0 0 0.1 0 0.1 0.1 0.1 0.1 0.1 0 0.1 0 0.1 1.9 5.8 3.3-0.1 0.1-0.1 0.1-0.3 0-0.2-0.1-0.3 0-0.1-0.1-0.2-0.1-0.1-0.2-0.1-4.6-1.5-6-4.7c-2.5-5.8 5.2-16.7 9-20.8 3.1-3.3 9.8-9.9 8.1-10.7q-0.1 0-0.2 0-0.1-0.1-0.2 0-0.1 0-0.2 0.1-0.1 0-0.2 0.1l-9.2 9.8q-0.1 0.1-0.2 0.1-0.1 0.1-0.2 0.1-0.1 0-0.2 0-0.1-0.1-0.1-0.2c-0.2-0.6 5.5-8.6 6.3-9.7 3.1-4.6 2.9-8.1 0-12.5q-0.4-0.6 0.3-0.4 0.8 0.2 1.6 1c0.8 1 1.8 0.2 1.1-0.8q-1-1.4-2.5-2.1-0.1 0-0.2-0.1-0.1-0.1-0.2-0.2-0.1-0.1-0.1-0.2-0.1 0-0.1-0.1 0-0.3 0.1-0.5 0 0 0.1-0.1 0.1 0 0.2 0 0.1 0.1 0.2 0.1 0.1 0.1 0.3 0.1 1.3 1 2.7 1.8c1.1 0.8 2.5-0.1 1-1.1-0.3-0.3-6.9-3.8-5.5-4.3q0.1 0 0.2 0 0.1 0 0.2 0 0.1 0 0.2 0.1 0.1 0 0.2 0l5.8 2.5q3.5 1.4 0.9-1.2l-11.1-10.9q-1.3-1.3-1.6 0.5-2.3 11.2 4 20.6 0.2 0.3 0.4 0.6 0.1 0.3 0.1 0.7 0 0.3 0 0.6-0.1 0.4-0.2 0.6l-6.2 11.6q-0.1 0.1-0.2 0.2-0.1 0.1-0.2 0.1-0.1 0.1-0.2 0-0.1 0-0.1-0.1c-0.4-0.5 3.7-11.1 4.2-12.5q0-0.1 0.1-0.2 0-0.1 0-0.2-0.1-0.1-0.1-0.2-0.1-0.1-0.1-0.2c-6.3-7.6-7.2-16.3-3.9-25.5q1-2.7 3.9-4.7 0.1-0.1 0.2-0.1 0.1 0 0.2 0 0.1 0 0.2 0 0.1 0.1 0.2 0.2c5.9 5.1 15 12.5 19.8 19.9q0.1 0.1 0.1 0.2 0.1 0.1 0.1 0.2 0 0.1 0 0.2 0 0.2-0.1 0.3l-3.7 9q-1 2.3 1.1 0.6l10.5-8.2q2.8-2.3 1.7-4.3-1-1.6-2.6-0.9 0 0-0.1 0.1-0.1 0.1-0.1 0.2-0.1 0.1-0.1 0.3-0.1 0.1-0.1 0.3-0.3 1.2-1.3 1.8-0.6 0.3-0.5-0.2 0.8-4.9-3.4-7.2-0.7-0.4 0.1-0.4c3.1 0 5.2 1.9 8.1 0.3q0.1 0 0.2-0.1 0.1 0 0.3-0.1 0.1 0 0.2 0 0.1 0 0.2 0c6.5 0.6 2.8 14.9-3.1 16.1q-0.8 0.2-0.1 0.6 1.4 0.9 2.1 2.6 0 0.1 0.1 0.2 0 0.2 0 0.3 0.1 0.1 0.1 0.2 0 0.1 0 0.2-0.8 4.1-4.9 3.3-0.5-0.1-0.2-0.4 3.7-2.9-1.1-3.3-1.8-0.2-4 2.8-4.2 5.9 0.1 11.4c2 2.6-3.8-1.6-4.8-2.4q-0.1-0.1-0.2-0.2-0.1 0-0.2-0.1-0.1 0-0.2 0-0.1 0-0.2 0c-2.2 0.7 4.1 4.4 4.8 4.5q0.1 0.1 0.2 0.1 0.1 0.1 0.2 0.2 0.1 0 0.2 0.1 0 0.1 0.1 0.2c0.4 1.5-3 0-3.9-0.4q-0.1-0.1-0.2-0.1-0.2 0-0.3 0-0.1 0-0.2 0-0.2 0.1-0.3 0.1-0.4 0.2-0.3 0.7 0 0.1 0.1 0.2 0 0.1 0.1 0.2 0.1 0.1 0.2 0.2 0.1 0 0.3 0.1c3.2 1.6 10.1 2.7 11.7-1.2q0-0.1 0.1-0.2 0-0.1 0.1-0.1 0.1-0.1 0.2 0 0.1 0 0.2 0c1.1 1-0.9 3.5-1.6 4q-0.1 0.1-0.2 0.2-0.1 0.1-0.1 0.2-0.1 0.1-0.1 0.2-0.1 0.1-0.1 0.2c-0.2 1.3 1.1 0.5 1.6 0.2q3.6-3 1.6-7.2-0.2-0.2-0.4-0.4-0.2-0.2-0.5-0.2-0.2-0.1-0.5 0-0.3 0-0.5 0.2c-4.2 3.6-8-2.2-3.8-4.9q0.1 0 0.2-0.1 0.1 0 0.2 0 0.1-0.1 0.2-0.1 0.2 0 0.3 0c6.8 0.5 10.3 6.5 7 12.5-0.4 0.9-1.5 1.5-2 2.6q0 0.1 0 0.2 0 0.1 0 0.3 0 0.1 0.1 0.2 0 0.1 0.1 0.2 3 2.6 5.1 5.9 0.1 0.2 0.3 0.3 0.2 0.2 0.5 0.2 0.2 0 0.5-0.1 0.2-0.2 0.3-0.4l4.7-6.3q0.1-0.1 0.2-0.3 0-0.2 0-0.5 0-0.2-0.1-0.3-0.1-0.2-0.3-0.4c-6.2-5.6-1.5-15.6 7.1-13.1q1.8 0.5 1.2 2.5-1.6 5.2-4.9 2.2-2.3-2-2.9 1c-0.8 4.2 3.6 8.1 3.6 5.6q-0.1-0.1-0.1-0.2 0-0.1-0.1-0.2-0.1-0.1-0.2-0.2-0.1-0.1-0.2-0.2-2-1.1-1.4-3.5 0.1-0.6 0.6-0.1 4.4 5.2 11.2 1.4 1.2-0.7 1.3-1.8 0.1-0.6-0.4-0.3-2.5 1.3-3.8 1.6-3.3 0.6-0.4-0.9 3.3-1.8 4.5-4.6 0.2-0.5-0.3-0.2zm-31.7 36.9l-0.1-0.2q0 0 0-0.1 0-0.1 0-0.1 0-0.1 0-0.1 0-0.1 0-0.2c5.4-9.3 4.1-22.4-8.4-24.6q-4-0.7-2.3 2.8 2.9 6 9.4 5.5 0.2 0 0.3 0 0.1 0 0.3 0.1 0.1 0 0.1 0.1 0.1 0.1 0.2 0.2c3.5 8.8-2 18.7-10 22.6q-0.1 0.1-0.3 0.1-0.1 0-0.3-0.1-0.1-0.1-0.2-0.2 0-0.1 0-0.3c0.1-3.1 1-9-4.5-7.8-2.2 0.5-4.3 4.7-2.2 4.6q0.1 0 0.2-0.1 0.1 0 0.1-0.1 0.1 0 0.2-0.1 0.1-0.1 0.1-0.3c0.2-0.3 2.4-3.2 1.6-0.9-2.1 5.5 3.8 6.3 6.6 9.7q1.4 1.7 2 4.8 1.9 8.7 5.7 16.6c2 4 11.1 4.4 9-0.8q0-0.1-0.1-0.2-0.1-0.1-0.1-0.2-0.1-0.1-0.2-0.2-0.1-0.1-0.2-0.1c-4.2-2-4.3 5.8-6.4 0.2q0-0.1 0-0.3 0-0.2 0-0.4 0-0.2 0.1-0.5 0-0.3 0.1-0.6 0.3-1 0.3-2-0.1-0.2-0.1-0.3 0-0.2-0.1-0.3 0-0.1-0.1-0.2 0-0.1-0.1-0.2-3.1-3-2.9-7.6 0.1-1.3 0.9-0.2 3.7 5.1 8.9 8.4c2.3 1.5 3.3 3 2.9 5.7q0 0.2-0.5 0.8-0.3 0.4-0.2 0.9 0 0.1 0.1 0.2 0.1 0.1 0.2 0.2 0.1 0.1 0.2 0.1 0.1 0 0.3 0 1.1-0.3 2.2 0 0.7 0.2 0.4-0.7c-1.4-3.6-0.1-5.4 2.9-7.5q5-3.5 8.7-8.3 1.1-1.4 1 0.4-0.3 4.6-3.5 7.9-0.1 0.1-0.1 0.2-0.1 0.1-0.1 0.3-0.1 0.1-0.1 0.3 0 0.1 0.1 0.3 1.2 3.9-0.8 5.4-0.2 0.1-0.3 0.1-0.2 0.1-0.3 0-0.2 0-0.3-0.1-0.1-0.1-0.1-0.3-1.7-4.2-4.9-1-2.2 2.1 0.9 3.1 5.9 2.1 8.4-3.2 2.7-5.9 4.7-12.2c1.8-5.7 1.4-9.5 7.9-12.2q2.8-1.2 2.2-3.7-1.3-5 0.7-1.6 0.1 0.1 0.2 0.2 0.1 0.1 0.2 0.2 0.1 0 0.2 0.1 0.2 0 0.3 0c2.4-0.5-0.7-4.1-2.2-4.4-4.2-1.1-6.2 3.8-4.8 7.1q0.8 2-1.1 0.9-12.7-7.3-9.7-22.2 0.1-0.1 0.1-0.2 0.1-0.1 0.2-0.1 0.1-0.1 0.2-0.1 0.1-0.1 0.3 0 8 1.1 10.5-6.5 0.1-0.3 0.1-0.6-0.1-0.3-0.3-0.5-0.1-0.3-0.4-0.4-0.3-0.1-0.6-0.1c-14 0.6-15.7 14.5-10.6 24.3q0.1 0.3-0.2 0.1l-2.1-1.4q-0.1-0.1-0.2-0.1-0.1 0-0.2 0-0.1 0-0.2 0.1-0.1 0.1-0.2 0.1c-1.7 2.1 6.6 6.8 7.7 7.4q1.9 1.1 1.1 3.2c-2 4.9-5.2 9.2-10.5 9.3-0.9 0-4.2-0.2-4.3-1.2q0-0.1 0-0.2 0-0.1 0.1-0.2 0.1-0.1 0.2-0.1 0.1-0.1 0.2-0.1 4.6-1.1 5.6-5.6c1.4-6.2-10-4.2-13.5-4.2q-2.8 0-2.8 2.7-0.1 5.8 5.5 7.1 0.2 0 0.3 0.1 0.1 0.1 0.2 0.2 0 0 0.1 0.1 0 0.1 0 0.2c-0.4 0.8-3.1 1.1-4 1.1-6 0.1-10.4-5.4-11.3-10.9q0-0.2 0-0.3 0-0.2 0.1-0.3 0.1-0.2 0.2-0.3 0.1-0.1 0.3-0.2 4.3-2.3 8-5.7 0.1-0.1 0.2-0.2 0.1-0.1 0.1-0.2 0.1-0.1 0.2-0.2 0-0.1 0-0.2 0.5-1.9-1.4-1.4-0.1 0-0.2 0.1-0.1 0-0.2 0.1-0.1 0.1-0.2 0.3-0.1 0.1-0.2 0.3l-0.9 1.5q-0.1 0.2-0.2-0.2zm117.5-64.2c-10.4 6.3-17.1 14.6-23.3 25.5-1 1.8-1.3 4.1 1.7 3.8q8.9-1.1 7.3 8.2c-2.3 13.2-16.9 24.2-28.7 28.4-1.2 0.4-3 1.7-4.5 2-3.7 0.6-7.7 2.2-11.2 3.4q-0.2 0-0.3 0-0.2 0-0.3 0-0.1-0.1-0.2-0.2-0.1-0.1-0.1-0.2l0.1-0.2q-0.1-0.1 0-0.1 0-0.1 0-0.1 0.1-0.1 0.1-0.1 0.1-0.1 0.2-0.1c13-4.4 26.2-13.8 31.7-26.8q0.9-2.3 1-4.2c0.4-10.8-11.7 2.7-13.6 4.3q-1.3 1.1-0.9-0.6c6.9-26.4 22.3-48.3 51.7-51q4.9-0.5 17.2-0.5 0.6 0 2.8 0.6 0.5 0.1 0 0.1-7-0.2-12.8 1.2c-5.8 1.5-12.6 3.4-17.9 6.6zm-185.9 35.5q-0.9 2.7-0.3 3.9 10.2 22.7 33.4 31.5 0.6 0.3 0.5 0.7 0 0.1-0.1 0.1-0.1 0.1-0.2 0.1-0.1 0.1-0.2 0.1-0.1 0-0.2-0.1-12.9-4.1-24.8-10.6c-8.8-4.9-14.3-11.4-19.2-21.1-2.6-5.1-2.7-11.8 5.7-9.6q2.9 0.7 1.5-2.1c-8-16.7-22-26.9-39.8-32.2q-5.5-1.6-12.4-1.2-0.1 0-0.2-0.1-0.1 0-0.2-0.1-0.1 0-0.1-0.1-0.1-0.1 0-0.2c0-0.1 0.2-0.4 0.3-0.5 14.2-3.6 29.7 0.5 41.8 8q5.7 3.4 10.6 9.2 12.2 14.1 19.3 31.7c0.4 0.8-0.2 1.4-1 0.8-3-2.4-10-9.6-13.7-8.8q-0.2 0-0.3 0.1-0.1 0-0.1 0.1-0.1 0.1-0.2 0.2-0.1 0.1-0.1 0.2zm269.3-35.8c-11.9 11.3-28.6 14.4-43.4 6.6q-0.1 0-0.2-0.1-0.1-0.1-0.1-0.2-0.1-0.1-0.1-0.2 0-0.1 0-0.2c-0.2-7.5-6.3-7.9-12.1-8.7-1.2-0.2-0.9-0.7-0.1-0.8 4.3-0.5 11.1-2.5 13.6-1.6 11.2 4.3 30.3 8.8 41.8 4.3q2.6-1 0.6 0.9zm-372.3 0.1c5.5 4.8 20.1 3.2 25.7 1q0.6-0.2 5.1-2.6 8.1-4.4 17-0.1c0.2 0 3.7 2.1-0.4 0.9q-0.3 0-0.6-0.1-0.3 0-0.5 0-0.3 0-0.6 0.1-0.2 0.1-0.5 0.2-5.8 2.7-5.5 7.8 0 0.2 0 0.3-0.1 0.1-0.1 0.2-0.1 0.2-0.1 0.3-0.1 0.1-0.2 0.1c-12.4 9.9-30.5 2.6-40.3-7.6q-0.6-0.6 0.1-0.8 0.1 0 0.2 0 0.1 0 0.2 0 0.2 0.1 0.3 0.1 0.1 0.1 0.2 0.2zm273.2 22.8c8.6-9.7 17.4-18 30.2-21.4 4.6-1.2 9.6-0.1 14.4 0.2 1 0.1 1 0.7-0.2 0.8q-10.8 0.2-19.9 5.6c-7.8 4.6-12.7 12-19.2 18.4q-0.1 0.1-0.2 0.2-0.1 0-0.2 0.1-0.2 0-0.2-0.1-0.1 0-0.2-0.1-1.1-2.4-3.8-2.6-1.5-0.1-0.7-1.1zm-215.6-19.8c11 0.3 27.2 12.7 34 21.1q0.5 0.7-0.3 0.8-2.6 0.1-3.3 2.6-0.4 1.1-1.1 0.2-10.7-13.6-25.5-21c-4.1-2-8.2-1.7-12.6-1.5q-0.1 0-0.2 0-0.1-0.1-0.2-0.1-0.1-0.1-0.2-0.2 0-0.1-0.1-0.2c-0.2-1.5 8.4-1.8 9.5-1.7zm216 48.4h0.3q0 0 0.1 0 0.1 0 0.1 0 0.1 0 0.1-0.1 0.1 0 0.1 0c3.8-2.4 8.4-4.5 11.2-7.5 2.2-2.3 9.3-12.3 1.1-12.4q-2.9-0.1-5.7 0.3-0.7 0.1-0.3-0.5 8.3-10.8 19.8-18 9.5-5.9 19.4-5c0.2 0 1.1-0.3 1.1 0.3q0 0.1-0.1 0.1 0 0.1-0.1 0.2 0 0-0.1 0.1-0.1 0-0.2 0c-9.2 1.7-20.3 10.7-26.3 17.5q-0.1 0.2-0.1 0.3-0.1 0.2 0 0.4 0 0.1 0.2 0.2 0.1 0.2 0.3 0.2c4.6 0.9 4.9 4.7 3.1 8.4q-6.4 13.3-19.8 19-7.1 3-11.9 6.2c-0.7 0.5-2.2 3.1 0.2 2q0.5-0.3 1-0.4c16.3-4.2 32.5-15.3 38.8-32.8q0.3-0.7 0.6-0.6 0.1 0.1 0.2 0.2 0 0 0.1 0.1 0 0.2 0 0.3 0 0.1-0.1 0.2c-4 11.3-11.5 24.1-21.8 30.5-8.3 5.3-19.3 13-28.7 4.8q-0.2-0.2-0.3-0.4 0-0.2 0-0.4 0-0.2 0.2-0.4 0.1-0.2 0.3-0.3 13.9-8.3 21-23 0.1-0.1 0.2-0.2 0.1-0.1 0.2-0.2 0.1-0.1 0.2-0.1 0.1-0.1 0.2 0c1.1 0.3-4.2 9.6-4.8 10.5q-0.3 0.5 0.2 0.5zm-173.4 12q2.7-0.1 0.5-1.6c-2.4-1.7-4.3-3.9-7.2-4.9-2.9-0.9-5.5-1.5-8.1-3q-11.9-6.9-16.7-20 0-0.1-0.1-0.3 0-0.1 0-0.3 0-0.1 0-0.2 0-0.1 0.1-0.2l2.1-3.8q0-0.1 0.1-0.2 0 0 0.2-0.1 0.1-0.1 0.2-0.1 0.2-0.1 0.3-0.1c2.2-0.6 0.8-2.5-0.1-3.4-5.9-5.4-17-13.8-25.1-14.3q-0.1 0-0.3-0.1-0.1 0-0.2-0.1-0.2 0-0.2-0.1-0.1-0.1-0.1-0.2 0-0.2 0.1-0.4 0-0.1 0.1-0.2 0 0 0.1 0 0.1-0.1 0.2-0.1 0.1 0 0.2 0c3.1 0 6-0.4 9 0.6 6.2 2.1 14 5.2 18.8 10.1q5.9 6.1 12 12.1c0.5 0.5 0.3 1.2-0.5 0.9-2.1-0.9-4.7-2.4-6.8-1.2-6.7 4.1 5.6 15.3 8.8 17.2q3.4 2 4.6 3 0.1 0 0.3 0.1 0.1 0 0.2 0.1 0.1 0 0.2 0 0.1 0 0.2-0.1c0.5-0.3 0.3-1 0-1.4q-3.3-4.2-5.3-9.3-0.1-0.1-0.1-0.2 0-0.1 0.1-0.1 0-0.1 0.1-0.2 0.1 0 0.2 0c0.9 0.1 3.9 6.1 4.9 7.6 4 6.4 9.1 11.1 15.8 14.6q2.6 1.4 0.3 3.2c-7.8 6.3-24-2.6-29.8-7.5-7.7-6.6-13.4-17.8-18.6-26.7q-0.1-0.1-0.1-0.2-0.1-0.2-0.1-0.3 0-0.1 0.1-0.2 0 0 0.1-0.1 0.2-0.1 0.4 0 0.1 0 0.1 0 0.1 0 0.2 0 0 0.1 0.1 0.1 0 0.1 0 0.1c5.4 9.2 12.7 19.4 22 24.9 4.4 2.7 11.4 6.6 16.7 6.6zm88.1-41.5l-4.7 8.2q-0.1 0.1-0.2 0.2-0.1 0.1-0.2 0.1-0.2 0-0.3 0-0.1-0.1-0.1-0.2l-5.2-8.5q-0.1-0.1 0-0.1 0-0.1 0-0.2 0-0.2 0.1-0.3 0-0.2 0.1-0.3l4.7-10.4q0.4-0.8 0.8 0l4.8 10.3q0.1 0.1 0.2 0.3 0 0.2 0 0.4 0.1 0.1 0.1 0.3-0.1 0.1-0.1 0.2zm-6.4-2.9q-1.4 2.2 0.5 4.2 0.1 0.1 0.2 0.2 0.2 0.1 0.3 0.1 0.1 0.1 0.2 0.1 0.1 0 0.1 0 1.3-1 1.6-2.5 0.1-0.1 0.1-0.2 0-0.1 0-0.2 0-0.1 0-0.2 0-0.1 0-0.1l-1.8-4q0-0.1-0.1-0.1-0.1-0.1-0.2-0.1-0.1 0-0.2 0.1-0.1 0-0.1 0.1-0.6 0.7-0.5 1.7 0 0.1 0 0.3 0 0.1 0 0.2-0.1 0.1-0.1 0.2 0 0.1 0 0.2zm135.3 5.1c1.9-8.3-5.5-2.3-8.7-2.9q-0.5-0.1-0.1-0.4c4.7-4.1 10.8-9 16.7-9.4q0.1 0 0.3 0 0.1 0 0.2 0 0.1 0 0.2 0.1 0.2 0 0.3 0.1c8.1 4.1 14.4 5.4 24.4 5.1 4.8-0.2 9-1.9 13.7-3.1q0.1 0 0.3 0 0.1 0 0.2 0 0.1 0 0.2 0.1 0.1 0 0.1 0 0.5 0.4-0.4 0.7c-12.6 5.1-28 10.9-42.8 12.4q-2 0.3-3.2-0.2-1.8-0.7-1.4-2.5zm-308.1-8.4c6.3 2.1 14.3 3.5 20.9 2.4 4.3-0.6 8.2-3.5 12.3-5.3q0.2-0.1 0.5-0.2 0.2 0 0.5-0.1 0.2 0 0.5 0.1 0.2 0 0.5 0.1 8.5 3.1 15.2 9.3 0.1 0.1 0.2 0.2 0 0.1 0.1 0.2 0 0.1 0 0.2-0.1 0.1-0.1 0.2c-0.3 0.3-1 0.1-1.3-0.2-3.6-3.9-9.6 0.4-6.7 4.5q0.9 1.2-0.5 1.3-5.7 0.3-11.1-0.9c-4.5-1-8.7-1.7-11.5-2.8q-9.8-4.1-19.7-7.9-0.1-0.1-0.3-0.1-0.1-0.1-0.1-0.2-0.1-0.1-0.2-0.2 0-0.1 0-0.2c0-0.5 0.4-0.5 0.8-0.4zm301.2 18.9q0.6-1.5 1.9-0.6 0.1 0.1 0.2 0.1 0.1 0.1 0.2 0.2 0.1 0 0.2 0 0.1 0 0.2 0.1c12.2 0.6 24.9-3.4 35.7-8.7q0.1 0 0.2 0 0.1 0 0.2 0 0.1 0 0.1 0 0.1 0.1 0.1 0.2c0.1 0.6-13.8 10.9-14.4 11.4q-5.5 4.1-11 7c-2.4 1.2-10.4 5.9-12.6 5.9q-0.6 0-0.9 0.1-6.9 3.2-14.4 4.3-0.5 0.1-0.1-0.3 9.9-8.2 14.4-19.7zm-272.7-0.2c4.5 0.7 9.6 1.6 14.1 1.1 3.4-0.3 5.4-2.8 7.6 1.9q4.5 9.4 12.1 16.7 1.8 1.7-0.6 1.2c-17-3.4-35.7-13.7-48.2-26.4q-0.8-0.9 0-1.1 0.1-0.1 0.2-0.1 0.1 0 0.2 0 0.1 0.1 0.2 0.1 0.2 0.1 0.3 0.1 3.3 2.1 7 3.4c2.3 0.8 5.3 2.8 7.1 3.1zm255.4 26.1q0.1-0.1 0.2-0.2 0.1-0.1 0.3-0.1 0.1-0.1 0.3-0.1 0.1-0.1 0.2-0.1c11.5-0.5 21.4-3.6 31.4-9.3q0 0 0.1-0.1 0.1 0 0.1 0 0.1 0 0.1 0.1 0.1 0 0.1 0l0.1 0.2q0 0 0 0.1-0.1 0-0.1 0.1 0 0 0 0-0.1 0.1-0.1 0.1c-16.2 11.3-26.2 17.6-40.8 23.8q-5.8 2.4-12 3-0.5 0-0.1-0.2c7.4-5.1 14.1-9.8 20.2-17.3zm-216.6 4.3c4.6 3.9 9.9 9.4 15.1 12.2q0.1 0.1 0.1 0.1 0.1 0.1 0.1 0.1 0 0.1 0 0.2 0 0 0 0.1c-0.8 1.2-10.4-2-11.9-2.8q-17.8-8.3-33.4-20.3-0.1-0.1-0.2-0.2 0 0-0.1-0.1 0-0.1 0-0.2 0 0 0-0.1 0.1-0.2 0.6 0 12.4 6.7 26.5 7 0.1 0 0.2 0 0.1 0.1 0.2 0.1 0.1 0.1 0.2 0.2 0 0.1 0.1 0.2 1.4 2.6 2.5 3.5zm33.5 19.3l-3.9-5.1q-0.1-0.1-0.2-0.2-0.1-0.1-0.2-0.2-0.2 0-0.3-0.1-0.1 0-0.2-0.1l-5.7-1.1q-0.7-0.1-0.9-0.2c-6.8-4.7-13.8-9-20-14.5q-0.1 0-0.2-0.1-0.1-0.1-0.1-0.2-0.1-0.1-0.1-0.2 0-0.1 0-0.2c0-0.5 0.6-0.2 0.9 0 8.8 7.3 19.9 12.8 31.1 11.6q0.1 0 0.2 0 0.1 0.1 0.1 0.1 0.1 0.1 0.1 0.2 0 0 0 0.1-1.8 4.8 1.5 8.6 1.6 1.8 3.2 0.2 3-3 0.4-6.9c-0.3-0.3-0.4-1.4-0.2-1.5q0.1 0 0.2 0 0.1 0 0.2 0.1 0.1 0 0.2 0.1 0.1 0.1 0.1 0.3c2.3 4.6 7 8.3 11.4 11.4q0 0 0.1 0.1 0 0.1 0 0.1 0 0.1 0 0.2-0.1 0.1-0.2 0.1c-2.8 1.7-4.1 4.7-6.7 6.9q-0.1 0-0.2 0.1-0.1 0.1-0.2 0.1-0.1 0-0.3 0.1-0.1 0-0.2 0c-6.3 0-12.4-7-16.2-11.4q-0.3-0.4 0.2-0.4 0.1 0 0.1 0 0.1 0 0.2 0.1 0 0 0.1 0.1 0.1 0 0.1 0.1c2.9 2.6 15.6 13.4 17.4 4.2q0-0.1 0-0.2 0-0.1-0.1-0.2 0-0.1 0-0.2-0.1-0.1-0.1-0.2l-3-3.8q-0.7-0.9-0.6 0.2 0.5 4.5-4.1 3.8-2.8-0.4-3.9-1.9zm138.1-2.4q0.2-1.2-0.8-0.4-3.1 2.3-4 6 0 0.1 0 0.2 0 0.1 0 0.3 0 0.1 0 0.2 0 0.1 0.1 0.2c3.3 8.3 16-4.2 18.6-7.8q0.5-0.6 0.7-0.1 0 0 0 0.1 0.1 0.1 0.1 0.2-0.1 0.1-0.1 0.2 0 0.1 0 0.2c-3 6.8-8.3 9-14.5 12q-3.5 1.7-5.4-1.4-1.8-3-4.4-5.1-0.2-0.1-0.3-0.2-0.1 0-0.2-0.1-0.1 0-0.2-0.1-0.1 0-0.2 0c-1.9-0.2-1-1.1 0.1-1.3 5.1-0.6 8.9-5 11.4-9.1q0.3-0.4 0.6-0.3 0 0.1 0.1 0.1 0 0.1 0 0.2 0 0.1 0 0.2 0 0.1-0.1 0.3-0.7 2.4-0.3 4.9 0.3 2.1 2.2 1.2 5-2.3 5-7.9 0-0.1 0-0.2 0.1-0.1 0.2-0.2 0-0.1 0.1-0.1 0.2-0.1 0.3-0.1c5.5 0.3 9-0.5 14.2-2.2 5.2-1.8 10.1-5.1 15.1-7.7q0.5-0.3 0.2 0.2c-1.5 2.1-5.3 3.8-8.4 6q-4.1 3-12.4 6.4c-3.7 1.5-5.2 0.1-7.6 4.6-1.7 3-11.5 9.1-10.1 0.6zm-129.4-9.9c5.2 2.9 12.5 5.4 18.6 5q0.1 0 0.2 0.1 0.1 0 0.2 0.1 0.1 0.1 0.1 0.2 0.1 0.1 0.1 0.2 0.1 3.9 2.2 7.2 0.3 0.5-0.5 0.4-2.2-0.3-4.3-0.5c-6.1-0.8-13.2-7.3-16.9-11.9-0.2-0.2-0.3-0.5-0.2-0.8q0.1 0 0.1 0 0.1 0 0.1-0.1 0.1 0 0.1 0.1 0.1 0 0.2 0zm108.1 11.3c0-1.3 0.8-7.3 3.7-6.1q0.4 0.1 0.9 0.1 8.3-0.6 15.2-5.1 0-0.1 0.1-0.1 0.1 0 0.1 0 0.1 0 0.2 0 0.1 0 0.2 0h0.2q0.5 0 0.1 0.3c-6.1 5.4-9.7 10.3-17.9 13q-2.9 1-2.8-2.1zm-118.2 14.7q1.8 1 0 0.7c-1.6-0.2-3.4-0.2-4.8-0.7q-8-2.7-15.2-7.1c-2.8-1.7-6.4-6.4-11.6-9.1q-0.2-0.1-0.3-0.2-0.1-0.1-0.1-0.2-0.1-0.1-0.1-0.2 0-0.1 0-0.2c0.1-0.2 1-0.2 1.2 0q8.6 5.3 18.7 4 0.1 0 0.2 0 0.1 0 0.2 0.1 0.1 0 0.1 0.1 0.1 0.1 0.2 0.2 4 7.9 11.5 12.6zm145.3 1c3.6-2.6 12-9 13.3-13.4q0-0.1 0.1-0.3 0-0.1 0.1-0.2 0.1-0.1 0.2-0.2 0 0 0.1 0 0.5-0.1 0.7 0.3 0.1 0.1 0.1 0.2 0.1 0 0.2 0.1 0.2 0.1 0.3 0.1 0.1 0.1 0.2 0.1c5.1 1 12.2-1.8 17-4.1 0.2-0.1 0.5-0.4 0.8-0.2q0 0 0.1 0.1 0 0 0 0.1 0 0.1 0 0.1-0.1 0.1-0.1 0.2c-10.4 9.4-19.5 15.5-33 17.3q-0.5 0.1-0.1-0.2zm-68.7-14.1l3.3-0.1q1.7 0 0.4 1.2-6.2 5.6-12.2-0.5-0.6-0.6 0.3-0.6h4.5q0.1 0 0.2-0.1 0.1 0 0.3 0 0.1-0.1 0.2-0.1 0.1-0.1 0.2-0.2 0.9-0.8 1.9 0 0.1 0.1 0.2 0.2 0.1 0 0.2 0.1 0.1 0 0.2 0 0.2 0.1 0.3 0.1zm-66.2 11.6c5.6 1.3 9.9-4.7 15.3-6.5q0.1 0 0.2 0 0.2-0.1 0.3 0 0.1 0 0.2 0 0.1 0 0.2 0.1 0.3 0.3-0.3 0.7c-5.4 3.6-5.5 10.4-4.6 16.3q0.1 0.7-0.2 1-0.1 0.1-0.2 0.1 0 0-0.1 0-0.1-0.1-0.2-0.1-0.1-0.1-0.1-0.2-1.7-4.9-1.1-10 0.2-1.8-1.6-0.5c-4.7 3.1-8.1 2.3-13-0.5-0.9-0.5-8.6-4.4-8.6-4.8q0-0.1 0.1-0.2 0 0 0.1 0 0.1-0.1 0.2-0.1 0.1 0.1 0.2 0.1 8.3 3.5 13.2 4.6zm117.3-2.5c4.1 5.2 16.1 1.2 21-1q0.6-0.2 0.3 0.3c-0.9 1.7-9.4 4.4-11.2 4.9-3.3 1.1-6.2 0.4-9.7 0.2q-0.1 0-0.2 0-0.1 0-0.2 0.1-0.1 0.1-0.2 0.2 0 0.1-0.1 0.2l-2.3 7.2q0 0.1 0 0.1 0 0-0.1 0.1 0 0 0 0-0.1 0.1-0.1 0.1c-0.7 0.1 0.3-3.9 0.3-4.2 1.1-4.5-0.5-8.3-4-11.2-0.3-0.2-0.5-0.5-0.3-0.8q0.1-0.1 0.1-0.1 0.1-0.1 0.1-0.1 0.1 0 0.2 0 0.1 0 0.2 0 3.5 0.7 6.2 4zm-95.5-1.6q0.5-0.7 0.7-0.1l0.9 2.8q0.1 0.1 0.1 0.2-0.1 0.1-0.1 0.2-0.1 0.1-0.1 0.2-0.1 0.1-0.2 0.2-2.8 2.1-4.5 5c-0.6 1-1.5 1.1-1-0.5q1-4.2 4.2-8zm82.3 0.4q0.1-0.3 0.2-0.4 0-0.1 0.1-0.1 0.1 0 0.1 0 0.1 0 0.2 0.1 0 0 0.1 0.1 2.5 4 3.7 8.7 0.1 0.1 0.1 0.2 0 0.2 0 0.3 0 0.1-0.1 0.1 0 0.1 0 0.2-0.3 0.2-0.6-0.5-1.6-3.2-4.4-5.6-0.1 0-0.1-0.1-0.1-0.1-0.2-0.3 0-0.1-0.1-0.2 0-0.1 0-0.2 0-1.3 1-2.3zm-79.3 7.4c5.7 5.3-1.8 8.2-5.8 9.2q-0.1 0-0.2 0-0.1 0-0.2 0-0.1-0.1-0.1-0.2 0 0 0-0.1 1.1-5.5 5.4-9 0.1-0.1 0.2-0.1 0.1 0 0.3 0 0.1 0 0.2 0 0.1 0.1 0.2 0.2zm74.8 1.1q0.1-2.3 1.9-0.8 4.3 3.4 3.4 8.8 0 0.2-0.1 0.3-0.1 0.1-0.1 0.2-0.1 0.1-0.2 0.1-0.1 0.1-0.2 0.1-4.6-1.2-6.2-5.6-0.1-0.1-0.1-0.3 0-0.2 0-0.3 0-0.1 0.1-0.2 0.1-0.1 0.2-0.2 1.2-0.7 1.3-2.1zm48.1 43.9c-5.6 5.2-20.4 19.3-28.3 17.6q-3.8-0.8-1.4-3.8c8.3-9.9 22-16.6 33.9-20.8q2.2-0.8 3.7-2.4 7.1-7.3 13.7-15.1c1.9-2.2 4.2-7.1 7.4-8.5 1.6-0.7 1.4 0.8 0.9 1.6q-8.5 13.4-12.4 21.1-0.4 0.9 0.5 1.9 0 0.1 0.1 0.1 0 0.1 0 0.2 0 0.1-0.1 0.2 0 0-0.1 0.1c-5.2 3.2-6.9 16.4-6.6 22q0 0.1 0 0.3 0 0.1-0.1 0.2 0 0.1-0.1 0.2-0.1 0.1-0.2 0.2-0.9 0.7-1.8 0-0.1-0.1-0.2-0.1 0-0.1 0-0.3-0.1-0.1-0.1-0.2 0-0.2 0-0.3 1-11 5.7-21 0-0.1 0-0.2 0-0.1 0-0.2 0-0.1-0.1-0.1-0.1-0.1-0.2-0.1c-6.9-0.3-9.6 3.1-14.2 7.4zm19.3-19.3c-1.7 1.8-10.4 10.4-9.7 10.9q0.1 0 0.2 0.1 0.1 0 0.2 0 0.2 0 0.3 0 0.1 0 0.2-0.1 2-0.9 4.3-0.8 0.1 0 0.2-0.1 0.1 0 0.2-0.1 0.1 0 0.2-0.2 0.1-0.1 0.2-0.2l4.5-9q1.4-2.7-0.8-0.5zm-45.9 31.5q-2 1.9 0.6 3.4 0.1 0.1 0.2 0.1 0.1 0 0.3 0 0.1 0 0.2 0 0.1 0 0.2 0c9.9-3.5 19.2-12.1 26.7-19q2.9-2.8-0.8-1.3c-10.1 4-19.7 9.2-27.4 16.8zm-127.7-28l4.6 0.5q0.1 0 0.3 0 0.1 0.1 0.2 0.1 0.2 0.1 0.2 0.2 0.1 0 0.2 0.1 0.9 2.4-1.8 2.9-0.2 0-0.3 0-0.1 0-0.3 0-0.1 0-0.1-0.1-0.1 0-0.1-0.1-0.2-0.5 0.2-0.9 0-0.1 0-0.2 0-0.1-0.1-0.2-0.1-0.1-0.2-0.2-0.1 0-0.3-0.1l-4.2-0.9q0 0-0.1 0-0.1 0.1-0.2 0.2-0.1 0-0.2 0.1 0 0.1-0.1 0.3c-3.2 5.9-6.9 11.4-6.1 18.4q0 0.2 0 0.4 0.1 0.1 0.1 0.3 0.1 0.1 0.1 0.2 0.1 0 0.2 0.1l1.9 0.8q0.1 0 0.2 0.1 0 0.1 0.1 0.2 0 0.1 0 0.2 0 0.1-0.1 0.2c-1.9 2.8-5.5 4.7-6.2-0.5q-0.6-3.7 2-10.1 0-0.2 0-0.3 0-0.2 0-0.3-0.1-0.1-0.2-0.2-0.1 0-0.2 0l-3.7 0.3q-0.1 0-0.1 0-0.1 0.1-0.2 0.2-0.1 0.1-0.1 0.2-0.1 0.2-0.2 0.3-2.5 6.5-9.3 7c-5.3 0.4-1.5-4.2-1.9-4.9q0 0-0.1-0.1-0.1 0-0.3 0-0.1-0.1-0.3 0-0.1 0-0.3 0-10.8 3.7-15.1-6.4 0-0.2-0.1-0.3 0-0.1 0-0.2 0-0.2 0-0.3 0-0.1 0.1-0.3c1.5-4.1-5.2 3.4-5.2 3.5-2.5 2.6-4.2 5.7-8.2 7.5q-2.8 1.3-3.5-1.7c-1-5.3 0.4-9.4 1.2-14.1q0.6-3.1 1.5-5.8 0.6-1.9-1.1-0.9-8.6 5-15.7 11.7c-6 5.7-12.2 14.7-18.7 21.7-1.4 1.6-5.3 3-2.4-0.9 1.5-2.1 2.9-4.2 4.6-6.1 9.8-10.5 14.9-15.9 19.8-27.5 0.2-0.4 2-9.1 3.8-6.1q0.7 1.1-0.2 3.4-2.4 6.2-6.2 11.6-0.1 0.1-0.2 0.2-0.1 0.2-0.1 0.3 0 0.1 0 0.2 0 0.1 0.1 0.2c0.6 0.6 22.1-19.4 19.4-7.3-0.9 4-3.9 14.6-2.1 18.2q0.1 0.2 0.3 0.4 0.2 0.1 0.5 0.2 0.2 0 0.5-0.1 0.2-0.1 0.4-0.3c4.1-4.3 7.9-8.7 12.6-12.4q1.3-1.1 1.5 0.6c1.5 11.1 11.6 13.4 18.9 5.5q0.2-0.2 0.4-0.4 0.3-0.1 0.6-0.1 0.4-0.1 0.7 0 0.3 0.1 0.6 0.3 4.3 2.6 9.2 0.7 0-0.1 0.1-0.1 0.1-0.1 0.2-0.2 0 0 0.1-0.1 0.1-0.1 0.1-0.3l3.4-6.6q0.4-0.8-0.5-0.7-13.7 0.8-27.3 3.2c-1.7 0.3-1.2-1.1-0.1-1.4q3.7-0.8 7.4-1.3 10.6-1.3 20-1.8 0.4 0 0.8-0.1 0.3-0.1 0.7-0.3 0.3-0.1 0.5-0.4 0.3-0.2 0.5-0.5 3.2-4.9 8.3-7.9 0.1 0 0.2 0 0.1 0 0.2 0 0 0.1 0.1 0.1 0.1 0.1 0.2 0.2c0.3 0.9-5.2 6.8-6.1 8.1q-0.1 0.1-0.1 0.3-0.1 0.1 0 0.3 0.1 0.1 0.2 0.2 0.1 0.1 0.2 0.1zm-20.4 11.7c-0.6 1.2-3.3 4.8-0.1 4.8q2.2 0 2.9-2.7 0.4-1.6-0.9-2.5-0.3-0.2-0.5-0.3-0.3 0-0.6 0-0.2 0.1-0.5 0.3-0.2 0.1-0.3 0.4zm252.7 4.2q0.2 0.3 0.4 0.5 0.2 0.2 0.5 0.2 0.3 0.1 0.6 0.1 0.3-0.1 0.5-0.3l5.3-3.6q0.2-0.1 0.3-0.2 0.1-0.1 0.2-0.1 0.2 0 0.3-0.1 0.1 0 0.1 0c0.7 0.1 0.4 0.7 0.1 1-2.7 2.9-9 8.5-12.5 4.1q-0.1-0.1-0.2-0.2-0.1 0-0.2-0.1-0.1 0-0.2 0-0.1 0-0.2 0.1c-2.7 1.1-11.8 6.2-11.4-0.2q0-0.1-0.1-0.2 0-0.1-0.1-0.1-0.1-0.1-0.2-0.1-0.1-0.1-0.2 0l-4.1 1.1q-0.1 0.1-0.3 0.1-0.1 0-0.2 0-0.2 0-0.2 0-0.1 0-0.2 0-5-1.6-5.1-7 0-1-0.9-0.2c-1.4 1.3-8.2 9.9-8.5 10-2.1 0.8 1-5.7 1.1-5.8q0.7-1.5-0.9-1l-12.5 4.3q-0.1 0-0.2 0.1-0.2 0.1-0.3 0.1-0.1 0.1-0.1 0.2-0.1 0.1-0.2 0.2-3.6 5.9-6.5 12.3c-0.7 1.6-4.1 4.4-3.1-0.4q0.1-0.1 0-0.2 0-0.1 0-0.1-0.1-0.1-0.1-0.2-0.1-0.1-0.2-0.1c-3.8-1.3-2.1-8.3-1.4-10.5 2.4-7.6 10.7-26.5 19.4-29.8q0.2 0 0.3 0 0.1 0 0.2 0.1 0.1 0 0.2 0.1 0.1 0.1 0.1 0.2v0.3q0 0.1-0.1 0.2 0 0.1 0 0.2-0.1 0.1-0.1 0.2-0.1 0.1-0.1 0.1-11.4 11.6-16.9 26.9c-0.7 1.8-1.3 5.5-0.6 6.8q1 2 1.7 0.1 2.6-6.7 5.6-13.2c1.5-3.2 2.2-5.6 5.3-7.8q0.1-0.1 0.2-0.1 0.1-0.1 0.2-0.1 0.2 0 0.3 0 0.1 0 0.2 0.1 1 0.4 0.5 1.3-5.1 8.7-9.8 17.6-0.1 0.1-0.1 0.2-0.1 0.2-0.1 0.3 0 0.1 0 0.2 0.1 0.1 0.1 0.1c0.2 0.3 0.7 0 0.9-0.3 3.3-6.2 7.6-14.3 13.8-17.9q0.2-0.1 0.3-0.1 0.1-0.1 0.2-0.1 0.2 0 0.3 0 0.1 0 0.2 0 1.1 0.2 1.7 1.3 0.1 0.1 0.1 0.2 0 0.1 0 0.2 0 0.2 0 0.3 0 0.1 0 0.2-1.4 3.2-3.6 6-0.3 0.4 0.2 0.3 3.3-0.4 6-2.1 0.1-0.1 0.2-0.1 0.1-0.1 0.2-0.2 0.1-0.1 0.1-0.2 0.1-0.1 0.2-0.2c3.3-7 8.6-18.6 12.9-20.1 1.5-0.5 1 1.2 0.6 1.8q-7.6 11.1-10.5 16.8-0.8 1.7 0.3 1.4c1.1-0.2 2.2-2.1 3-2.4 5.6-2.1 2.2 9.4 10.6 6.8q1.5-0.5 3.1-2.3 3.7-4.2 9.4-5.8 3-0.9 2.8 2.1-0.3 2.7-2.7 3.9-0.1 0.1-0.3 0.1-0.1 0-0.2-0.1-0.1 0-0.2-0.1-0.1-0.1-0.1-0.2-0.1-1.5-1.3-2.4 0-0.1-0.1-0.1-0.1 0-0.3 0-0.1 0.1-0.3 0.1-0.1 0.1-0.3 0.2c-1.6 0.7-5.8 3.7-5.1 5.8 0.7 2.3 6.3-0.6 9.4-2q0.1-0.1 0.3-0.2 0.1 0 0.2 0 0.1-0.1 0.3-0.1 0.1 0 0.1 0 1.4 0.4 2 1.8zm-46.8-0.4q0.2 0.2 0.6 0.1 0.4-0.2 1-0.5 0.6-0.4 1.2-1 0.7-0.6 1.3-1.3 0.7-0.7 1.2-1.4 0.5-0.7 0.8-1.3 0.4-0.6 0.4-1 0.1-0.4-0.1-0.6-0.2-0.2-0.6-0.1-0.4 0.2-1 0.5-0.6 0.4-1.2 1-0.7 0.6-1.3 1.3-0.6 0.7-1.2 1.4-0.5 0.7-0.8 1.3-0.3 0.6-0.4 1-0.1 0.4 0.1 0.6zm-109.5-0.6c2.4-1.5 6.8-7.1 7.5-1q0 0.3 0.2 0.5 0.1 0.3 0.3 0.5 0.2 0.3 0.5 0.4 0.3 0.2 0.6 0.2c2.3 0.5 3.3-0.8 4.7-2.7q3.7-5 10-5c2.2 0 2.3 2.1 1 3.3q-3.3 3.2-8 3.6-2.3 0.1-0.9 1.4 1.8 1.7 4.1 0.7 7.3-3 13.9-7.3 0.1-0.1 0.2-0.2 0.1 0 0.3 0 0.1-0.1 0.2-0.1 0.1 0 0.2 0 1 0.3-0.2 1c-3.3 2.2-20.4 13.9-22.7 7.2q0-0.1-0.1-0.2 0-0.1-0.1-0.1-0.1-0.1-0.2-0.1-0.1 0-0.2 0c-2.9 0.1-8 1.2-7.5-2.4q0.2-1.5-0.9-0.4c-0.8 0.8-8.4 7.6-6.8 1.2 0.2-0.7 2.3-3.8-0.5-2.1-1.5 0.9-6.8 9.3-9 7.1q-0.1-0.1-0.1-0.2 0-0.1-0.1-0.2 0-0.1 0-0.3 0-0.1 0.1-0.3 1-4.1 3.2-7.8 0.4-0.6-0.3-0.5l-4.8 0.4q-0.1 0-0.2 0-0.1 0.1-0.1 0.2-0.1 0.1-0.2 0.2-0.1 0.2-0.1 0.3-2.8 7.1-10.7 6.8-1.4-0.1-1.2-1.8 0.1-1.7-1.3-1-9.1 4.7-10.8-5.4-0.1-0.1-0.1-0.2-0.1 0-0.2 0 0 0-0.1 0-0.1 0.1-0.2 0.1-4.7 3.9-7.7 9.1c-1.5 2.4-1.9 0-1.4-1.3q2.3-5.5 9.3-19 2.9-5.7 6.5-8.5 0.1-0.1 0.3-0.2 0.1 0 0.2 0 0.1-0.1 0.2-0.1 0.1 0 0.3 0 1.2 0.3 0.4 1.5-8.3 12.7-11.8 19.2 0 0.1-0.1 0.1 0 0.1 0 0.2 0 0.1 0.1 0.2 0 0 0.1 0.1c0.3 0.2 2.3-2 2.6-2.3 6.7-6.6 3.8 8.1 11.8 5.6 3.2-1 5.5-4.3 7.9-6.8q0.3-0.3 0.6-0.5 0.3-0.2 0.7-0.2 0.4-0.1 0.7 0 0.3 0.2 0.5 0.4c2.1 2.6 5.4 1.8 9.3 1.2q0.1-0.1 0.2-0.1 0.1-0.1 0.1-0.2 0.1-0.1 0.1-0.2 0.1-0.1 0.1-0.3-0.1-2.4 2.7-2.6 0.3 0 0.6 0.1 0.2 0.1 0.4 0.4 0.2 0.2 0.3 0.5 0 0.4 0 0.7-0.9 4-2.4 6.1c-1.4 2 0.5 1.4 1.2 0.4q2.6-3.5 6.4-5.7 1.4-0.8 1.1 0.8l-1 5.4q-0.1 0.4 0.3 0.2zm23.1-4.5q-0.1-0.2-0.4-0.3-0.3-0.1-0.8 0-0.5 0-1.1 0.2-0.6 0.2-1.2 0.5-0.6 0.3-1.1 0.6-0.5 0.4-0.8 0.7-0.4 0.3-0.5 0.6-0.1 0.3 0 0.5 0.1 0.2 0.4 0.3 0.3 0.1 0.8 0 0.5 0 1-0.2 0.6-0.2 1.2-0.5 0.6-0.3 1.1-0.6 0.5-0.3 0.9-0.7 0.3-0.3 0.5-0.6 0.1-0.3 0-0.5zm-44.7 1.2c-0.4 0.7-3.8 6.4 0.3 4.5q4.1-2.1 1.6-4.8-0.2-0.2-0.4-0.3-0.3-0.1-0.6 0-0.3 0-0.5 0.2-0.3 0.2-0.4 0.4zm-38.4 1.9c1.7-0.2 5-8.7 8.3-4.4q0.1 0.1 0.1 0.1 0.1 0.1 0.2 0.1 0.1 0.1 0.2 0.1 0.2 0 0.3 0l2.7-0.5q0.8-0.2 0.3 0.4-2.6 2.7-6.5 1.7-2.1-0.5-2.9 1.1-2.2 4.1-5.3 7.3c-1 1-3.6 2.1-3.5-0.5 0.1-1.6 1.4-3.8 2-5.4q0.1-0.2 0.1-0.3 0.1-0.1 0.2-0.3 0.1-0.1 0.1-0.1 0.1-0.1 0.2-0.2 0.5-0.3 0.6-0.9 0-0.1-0.1-0.2 0-0.1-0.1-0.2-0.1-0.1-0.3-0.2-0.1 0-0.2 0l-3.9 0.3q-0.1 0-0.2 0-0.1 0.1-0.2 0.2-0.1 0-0.2 0.2-0.1 0.1-0.1 0.2-2.7 6.7-9.7 7.2c-7.3 0.6 2-9.1 3.2-10.3q1.7-1.7 3.4 0.1c1.7 1.8 9.2 0.4 11.6 0q1.4-0.2 0.7 1.2l-1.3 2.8q-0.2 0.5 0.3 0.5zm-11.5-1.8c-2.5-2.7-4 2.7-3.9 4.2q0 0.1 0.1 0.2 0 0.2 0.1 0.2 0 0.1 0.1 0.2 0.1 0 0.1 0 3.4-0.5 3.9-3.8 0 0 0-0.2 0-0.1-0.1-0.2 0-0.1-0.1-0.3-0.1-0.1-0.2-0.3z"/>
</svg>