<?xml version="1.0" encoding="UTF-8" standalone="no"?>
<!DOCTYPE svg PUBLIC "-//W3C//DTD SVG 1.1//EN" "http://www.w3.org/Graphics/SVG/1.1/DTD/svg11.dtd">
<svg xmlns="http://www.w3.org/2000/svg" version="1.1" viewBox="0 0 510 279">
<path fill="#000000" d="
  M 271.54 87.61
  Q 269.06 89.46 266.62 91.35
  C 266.10 91.76 266.22 90.94 266.35 90.75
  Q 271.88 82.35 263.77 76.56
  A 1.38 1.29 58.3 0 0 262.86 76.31
  Q 258.21 76.73 261.88 79.64
  Q 262.29 79.96 261.83 80.13
  C 257.21 81.88 254.12 75.55 258.28 73.00
  C 259.78 72.09 260.11 70.97 257.69 71.22
  A 1.29 1.13 -25.6 0 1 256.80 70.97
  C 252.68 67.65 248.32 57.92 256.51 56.27
  A 1.53 1.43 52.8 0 1 257.55 56.45
  Q 261.04 58.48 264.45 56.17
  A 1.15 1.14 -52.2 0 1 265.45 56.04
  Q 266.05 56.25 265.51 56.76
  Q 263.02 59.14 261.63 61.56
  A 1.65 1.40 61.2 0 0 261.44 62.49
  C 262.05 69.30 257.14 55.46 256.47 63.52
  A 1.49 1.48 -59.3 0 0 256.70 64.44
  C 258.26 66.83 261.09 68.39 262.56 69.71
  C 264.53 71.47 266.43 73.86 268.98 74.79
  Q 270.28 75.26 269.53 73.71
  L 265.77 65.99
  A 1.43 1.09 -54.4 0 1 265.74 65.01
  Q 266.70 62.06 269.02 60.02
  Q 277.69 52.44 285.27 44.27
  A 1.30 1.29 -42.3 0 1 287.24 44.36
  C 294.91 54.19 293.29 64.53 286.50 74.58
  A 0.82 0.81 48.0 0 0 286.46 75.43
  Q 289.40 80.89 290.35 86.98
  Q 290.43 87.49 290.16 87.06
  L 282.97 75.70
  A 0.85 0.82 -45.2 0 1 282.98 74.83
  C 287.45 67.56 290.00 61.70 287.99 52.98
  Q 287.64 51.46 286.56 52.60
  Q 281.43 58.06 275.47 63.46
  C 273.81 64.97 275.60 64.96 276.41 64.55
  C 277.23 64.14 282.99 60.95 283.39 61.57
  A 0.67 0.49 -35.6 0 1 283.14 62.34
  C 282.11 63.10 275.84 66.95 276.26 67.91
  A 0.52 0.48 64.7 0 0 276.94 68.18
  L 281.81 65.56
  A 0.49 0.44 65.8 0 1 282.45 65.85
  C 282.75 66.65 277.28 69.24 278.65 69.95
  A 0.77 0.48 -42.0 0 0 279.33 69.83
  C 280.14 69.28 282.78 67.51 282.78 68.46
  A 1.10 0.60 -26.5 0 1 282.28 69.18
  C 274.44 74.77 284.31 84.87 288.41 90.82
  Q 288.77 91.34 288.68 91.75
  Q 288.56 92.33 288.15 91.87
  L 277.79 80.21
  A 1.13 0.66 56.9 0 0 276.94 79.78
  C 274.94 80.12 291.08 99.29 292.28 100.96
  C 295.84 105.88 297.77 117.01 288.03 116.55
  A 0.52 0.41 -2.0 0 0 287.48 117.01
  Q 287.76 118.95 289.06 120.45
  A 1.05 1.05 41.8 0 0 290.72 120.36
  C 290.83 120.20 293.55 114.20 293.28 118.64
  Q 292.68 128.35 291.38 137.99
  Q 291.34 138.25 291.05 138.08
  A 0.67 0.50 -86.5 0 1 290.77 137.65
  Q 288.38 125.41 282.75 114.31
  C 281.23 111.30 281.00 109.03 282.85 106.32
  Q 285.13 103.00 286.97 104.75
  Q 290.26 107.88 286.75 110.11
  A 1.11 0.17 -31.1 0 0 286.00 110.74
  Q 285.85 111.90 287.01 111.76
  A 1.62 1.15 -65.8 0 0 287.91 111.23
  Q 289.82 109.01 288.91 111.89
  C 288.46 113.30 289.80 112.81 290.11 112.29
  Q 291.86 109.30 290.32 106.43
  Q 286.16 98.62 283.25 95.04
  C 281.96 93.45 280.63 94.27 281.27 96.11
  Q 282.23 98.87 284.39 100.70
  Q 285.07 101.28 284.25 101.27
  L 282.00 101.24
  A 0.85 0.60 -88.1 0 0 281.39 102.05
  Q 280.93 112.08 272.53 117.54
  A 1.10 0.82 -48.8 0 1 271.74 117.71
  Q 271.16 117.55 272.03 116.77
  Q 275.86 113.31 278.34 108.39
  A 3.75 3.70 53.8 0 0 278.68 106.11
  Q 278.44 104.64 277.75 104.51
  A 0.52 0.39 -87.3 0 0 277.29 105.06
  C 277.39 109.22 273.09 113.68 270.32 116.45
  A 0.73 0.41 -48.3 0 1 269.60 116.70
  C 268.77 116.16 275.73 109.28 272.96 109.41
  A 1.20 0.91 -67.4 0 0 272.17 109.87
  C 271.62 110.58 268.42 116.07 267.70 115.19
  A 0.60 0.59 -45.9 0 1 267.69 114.44
  Q 268.71 113.13 268.96 111.49
  A 0.64 0.63 -76.4 0 0 268.54 110.79
  C 267.54 110.42 266.57 115.48 265.77 113.33
  C 265.47 112.52 266.34 111.39 265.01 111.28
  A 0.57 0.52 -84.5 0 0 264.45 111.79
  C 263.91 116.98 267.71 123.27 273.83 120.04
  C 283.26 115.07 289.92 127.89 279.13 132.82
  Q 276.00 134.25 273.66 138.30
  A 1.62 1.62 58.1 0 0 273.44 139.25
  C 274.13 149.10 285.79 145.66 284.75 139.83
  A 1.32 0.72 89.3 0 0 284.26 138.96
  Q 280.49 137.03 280.63 141.23
  A 1.19 0.85 77.0 0 1 280.24 142.17
  C 277.85 143.81 275.62 142.08 276.23 139.47
  C 277.18 135.45 280.53 136.12 282.78 134.40
  Q 284.49 133.09 285.52 131.10
  Q 285.89 130.39 286.03 131.18
  C 287.96 142.57 285.21 151.04 277.32 159.29
  A 0.66 0.45 -54.4 0 1 276.75 159.50
  L 276.56 159.44
  A 0.32 0.23 -59.6 0 1 276.52 159.00
  Q 279.28 155.09 280.77 150.51
  A 0.94 0.38 -71.3 0 0 280.71 149.51
  Q 279.22 148.94 277.68 149.41
  A 1.10 0.25 -70.2 0 0 277.18 150.19
  Q 272.19 162.84 261.12 170.65
  A 0.30 0.15 -36.0 0 1 260.82 170.70
  L 260.69 170.56
  A 0.15 0.12 44.7 0 1 260.67 170.36
  Q 269.03 162.44 273.53 151.06
  Q 274.85 147.71 272.12 146.35
  A 0.53 0.48 23.4 0 0 271.40 146.59
  Q 268.29 155.22 262.57 162.31
  A 1.56 1.49 -26.9 0 0 262.24 163.25
  L 262.25 165.25
  A 0.49 0.48 -88.9 0 1 261.75 165.74
  Q 259.53 165.67 257.57 164.69
  A 1.34 0.67 -26.6 0 0 256.69 164.69
  Q 255.12 165.15 254.72 166.74
  A 0.43 0.43 89.2 0 0 255.25 167.26
  Q 255.95 167.07 256.45 167.56
  A 0.95 0.46 -64.3 0 1 256.45 168.44
  L 251.89 179.91
  Q 251.39 181.17 250.89 179.92
  L 246.35 168.43
  A 0.79 0.64 -30.6 0 1 246.65 167.61
  Q 249.11 165.75 245.76 164.37
  A 1.02 0.79 35.6 0 0 244.91 164.40
  Q 243.36 165.44 241.50 165.74
  A 0.64 0.52 -5.9 0 1 240.75 165.25
  L 240.76 163.50
  A 1.41 1.13 -72.0 0 0 240.41 162.57
  Q 233.95 155.96 231.54 146.99
  A 0.79 0.68 80.0 0 0 230.83 146.41
  C 228.52 146.51 227.97 148.50 228.68 150.45
  Q 232.50 160.90 240.33 168.84
  Q 240.69 169.20 240.23 168.97
  C 233.72 165.75 228.22 156.85 225.43 150.21
  A 1.23 1.15 88.0 0 0 224.77 149.55
  C 218.39 146.94 224.40 156.34 225.33 158.06
  A 0.59 0.45 61.9 0 1 225.21 158.81
  C 223.80 159.50 217.85 148.13 217.16 146.49
  C 215.13 141.61 215.28 137.15 216.39 132.15
  Q 216.63 131.09 217.43 132.04
  L 220.07 135.18
  A 1.17 0.24 2.1 0 0 221.00 135.41
  Q 226.23 135.75 226.57 141.02
  A 1.00 0.88 69.1 0 1 226.29 141.78
  Q 224.22 143.68 222.03 142.00
  A 1.47 0.88 -84.3 0 1 221.61 141.11
  Q 221.27 138.68 219.02 139.21
  A 1.03 0.89 2.3 0 0 218.33 139.76
  C 215.78 145.60 228.67 149.01 228.96 140.08
  C 229.21 132.29 217.25 133.62 218.24 124.98
  C 218.97 118.63 225.54 117.78 230.19 120.62
  Q 231.69 121.54 233.28 120.79
  Q 238.48 118.33 237.90 112.49
  A 0.30 0.30 -17.4 0 0 237.46 112.26
  Q 234.96 113.64 234.96 112.05
  Q 234.03 110.51 233.44 111.71
  A 0.91 0.78 41.9 0 0 233.55 112.58
  C 233.72 112.83 235.44 114.72 234.89 114.91
  A 0.70 0.38 46.0 0 1 234.34 114.74
  C 234.31 114.71 227.33 106.13 229.67 111.46
  C 230.33 112.96 232.52 114.86 233.69 116.10
  A 0.40 0.33 51.7 0 1 233.68 116.68
  C 231.86 117.71 226.24 108.21 225.63 106.73
  A 0.91 0.74 78.7 0 0 224.96 106.18
  C 220.86 105.86 230.91 116.90 231.09 117.06
  C 232.13 117.96 232.59 119.29 230.20 117.78
  C 224.40 114.12 222.11 108.32 220.90 101.97
  A 0.95 0.95 -11.5 0 0 219.76 101.22
  Q 218.27 101.55 217.90 101.25
  A 0.64 0.34 -39.0 0 1 218.22 100.51
  Q 221.03 98.48 221.35 96.56
  C 221.78 93.92 219.79 95.38 219.17 96.13
  Q 214.14 102.25 211.65 109.79
  A 1.15 1.07 -52.9 0 0 211.75 110.75
  L 212.34 111.66
  A 1.04 0.50 62.7 0 0 213.08 112.22
  C 214.50 112.06 212.49 110.46 213.24 110.12
  A 0.99 0.27 39.0 0 1 214.04 110.47
  L 215.59 111.65
  A 1.00 0.58 -32.0 0 0 216.48 111.62
  Q 217.46 111.17 216.33 110.37
  Q 213.59 108.42 214.84 105.42
  A 0.91 0.90 7.5 0 1 215.55 104.88
  C 223.83 103.73 221.20 112.17 218.99 116.58
  C 215.51 123.55 213.13 131.31 211.46 138.71
  Q 211.03 140.57 210.73 138.76
  Q 209.04 128.67 210.09 118.51
  A 0.89 0.42 -86.6 0 1 210.51 117.75
  Q 210.73 117.71 210.94 117.81
  A 0.47 0.12 75.7 0 1 211.12 118.14
  Q 213.00 123.92 214.44 118.02
  A 0.87 0.61 -74.9 0 0 214.09 117.05
  Q 209.49 115.60 208.09 112.35
  C 205.61 106.58 213.30 95.65 217.11 91.59
  C 220.23 88.28 226.90 81.73 225.22 80.91
  A 0.80 0.66 -54.1 0 0 224.38 81.13
  L 215.15 90.90
  A 0.46 0.32 -37.4 0 1 214.48 90.93
  C 214.26 90.27 220.00 82.30 220.77 81.19
  C 223.92 76.64 223.72 73.14 220.76 68.69
  Q 220.39 68.13 221.05 68.27
  Q 221.95 68.45 222.65 69.25
  C 223.53 70.27 224.47 69.47 223.75 68.48
  Q 222.76 67.14 221.27 66.41
  A 0.94 0.71 14.0 0 1 220.74 65.76
  Q 220.72 65.52 220.81 65.32
  A 0.66 0.29 32.6 0 1 221.56 65.44
  Q 222.93 66.35 224.29 67.24
  C 225.43 67.98 226.81 67.11 225.33 66.07
  C 224.96 65.82 218.41 62.25 219.78 61.84
  A 1.47 0.88 36.8 0 1 220.62 61.93
  L 226.40 64.35
  Q 229.91 65.82 227.28 63.22
  L 216.20 52.28
  Q 214.93 51.02 214.56 52.84
  Q 212.26 64.04 218.64 73.37
  A 2.65 2.33 43.5 0 1 218.87 75.95
  L 212.67 87.51
  A 0.50 0.33 -52.7 0 1 211.99 87.75
  C 211.59 87.15 215.65 76.62 216.20 75.22
  A 0.84 0.82 -54.4 0 0 216.07 74.37
  C 209.78 66.82 208.88 58.06 212.19 48.94
  Q 213.20 46.17 216.08 44.21
  A 0.66 0.66 -41.3 0 1 216.88 44.26
  C 222.77 49.40 231.90 56.80 236.70 64.15
  A 1.02 0.92 41.0 0 1 236.81 65.06
  L 233.07 74.08
  Q 232.10 76.43 234.24 74.73
  L 244.69 66.45
  Q 247.54 64.19 246.37 62.21
  Q 245.41 60.57 243.83 61.32
  A 1.21 0.40 -81.1 0 0 243.39 62.17
  Q 243.09 63.44 242.06 64.02
  Q 241.51 64.33 241.60 63.76
  Q 242.40 58.90 238.17 56.55
  Q 237.50 56.18 238.26 56.18
  C 241.38 56.18 243.47 58.14 246.38 56.52
  A 1.83 1.13 -45.6 0 1 247.31 56.29
  C 253.81 56.90 250.09 71.20 244.20 72.41
  Q 243.45 72.56 244.05 72.97
  Q 245.47 73.95 246.17 75.57
  A 1.75 0.75 55.7 0 1 246.36 76.54
  Q 245.60 80.56 241.50 79.78
  Q 240.99 79.68 241.33 79.41
  Q 245.01 76.54 240.20 76.11
  Q 238.40 75.94 236.22 78.93
  Q 231.96 84.77 236.28 90.30
  C 238.28 92.86 232.53 88.74 231.54 87.90
  A 1.10 0.58 47.2 0 0 230.67 87.59
  C 228.54 88.27 234.78 91.96 235.48 92.14
  A 1.00 0.71 3.6 0 1 236.17 92.70
  C 236.59 94.18 233.23 92.68 232.28 92.27
  A 1.10 1.01 -46.2 0 0 231.33 92.33
  Q 230.92 92.55 231.01 92.98
  A 1.29 0.81 15.2 0 0 231.68 93.71
  C 234.93 95.28 241.76 96.44 243.36 92.46
  A 0.43 0.35 -60.0 0 1 243.96 92.23
  C 245.07 93.21 243.09 95.67 242.44 96.24
  A 1.50 0.70 -30.4 0 0 241.90 97.02
  C 241.67 98.27 243.04 97.54 243.50 97.16
  Q 247.05 94.18 245.06 90.01
  A 1.18 1.18 -33.0 0 0 243.23 89.62
  C 239.00 93.21 235.19 87.37 239.36 84.73
  A 1.70 1.39 25.9 0 1 240.29 84.51
  C 247.08 85.01 250.61 91.04 247.35 97.02
  C 246.88 97.89 245.82 98.53 245.35 99.59
  A 0.75 0.74 33.2 0 0 245.54 100.46
  Q 248.50 103.07 250.60 106.43
  A 1.00 0.96 -43.2 0 0 252.22 106.45
  L 256.90 100.12
  A 1.15 1.10 39.5 0 0 256.72 98.62
  C 250.54 92.98 255.24 82.96 263.76 85.47
  Q 265.62 86.02 265.02 87.99
  Q 263.43 93.23 260.09 90.22
  Q 257.81 88.16 257.20 91.18
  C 256.37 95.37 260.81 99.27 260.75 96.77
  A 1.04 0.76 18.1 0 0 260.21 96.02
  Q 258.20 94.92 258.80 92.50
  Q 258.94 91.91 259.35 92.39
  Q 263.82 97.64 270.55 93.80
  Q 271.83 93.08 271.93 91.97
  Q 271.98 91.44 271.47 91.71
  Q 269.04 93.01 267.67 93.29
  Q 264.38 93.95 267.34 92.36
  Q 270.65 90.57 271.76 87.79
  Q 271.96 87.29 271.54 87.61
  Z
  M 239.75 124.50
  L 239.68 124.31
  A 0.63 0.48 -45.2 0 1 239.74 123.84
  C 245.13 114.48 243.78 101.43 231.25 99.19
  Q 227.25 98.48 228.96 101.96
  Q 231.92 107.99 238.45 107.47
  A 0.83 0.69 -11.8 0 1 239.27 107.90
  C 242.81 116.70 237.35 126.62 229.30 130.54
  A 0.57 0.57 77.7 0 1 228.48 130.01
  C 228.57 126.92 229.50 121.02 223.99 122.24
  C 221.83 122.72 219.66 126.88 221.76 126.79
  A 0.96 0.68 -74.2 0 0 222.44 126.24
  C 222.61 125.87 224.78 123.04 223.96 125.27
  C 221.93 130.82 227.79 131.64 230.60 135.03
  Q 231.99 136.71 232.64 139.80
  Q 234.46 148.46 238.34 156.41
  C 240.28 160.38 249.39 160.83 247.31 155.58
  A 1.31 1.24 -89.5 0 0 246.67 154.89
  C 242.53 152.93 242.41 160.67 240.31 155.12
  A 2.64 0.62 -70.3 0 1 240.52 153.26
  Q 240.81 152.26 240.75 151.25
  A 1.53 1.08 -76.1 0 0 240.39 150.33
  Q 237.29 147.25 237.53 142.73
  Q 237.60 141.36 238.44 142.54
  Q 242.08 147.59 247.28 150.91
  C 249.62 152.40 250.60 153.89 250.20 156.58
  Q 250.18 156.75 249.67 157.43
  Q 249.41 157.78 249.49 158.26
  A 0.65 0.63 77.3 0 0 250.27 158.77
  Q 251.39 158.49 252.48 158.77
  Q 253.24 158.96 252.90 158.08
  C 251.54 154.54 252.78 152.71 255.79 150.62
  Q 260.78 147.14 264.53 142.29
  Q 265.59 140.92 265.47 142.74
  Q 265.17 147.28 262.04 150.56
  A 1.17 1.14 -32.1 0 0 261.77 151.68
  Q 262.96 155.59 260.96 157.11
  A 0.66 0.64 60.9 0 1 259.96 156.81
  Q 258.34 152.57 255.05 155.79
  Q 252.88 157.91 255.97 158.95
  Q 261.90 160.96 264.35 155.70
  Q 267.11 149.76 269.09 143.50
  C 270.90 137.80 270.50 134.03 276.96 131.26
  Q 279.76 130.05 279.16 127.60
  Q 277.94 122.62 279.95 126.03
  A 0.88 0.74 67.9 0 0 280.77 126.46
  C 283.23 126.01 280.14 122.44 278.59 122.06
  C 274.41 121.04 272.43 125.91 273.77 129.15
  Q 274.61 131.17 272.69 130.08
  Q 259.97 122.82 263.03 107.94
  A 0.66 0.62 10.0 0 1 263.76 107.46
  Q 271.77 108.58 274.32 101.03
  A 1.25 1.23 -81.7 0 0 273.11 99.38
  C 259.05 100.00 257.42 113.88 262.47 123.70
  Q 262.63 124.01 262.33 123.82
  L 260.21 122.41
  A 0.63 0.62 -53.4 0 0 259.39 122.54
  C 257.68 124.57 265.99 129.25 267.09 129.89
  Q 269.02 131.02 268.19 133.10
  C 266.24 137.99 263.03 142.34 257.70 142.43
  C 256.77 142.44 253.51 142.24 253.37 141.16
  A 0.64 0.51 -10.8 0 1 253.88 140.57
  Q 258.49 139.49 259.51 135.01
  C 260.94 128.76 249.49 130.75 245.99 130.76
  Q 243.19 130.78 243.17 133.50
  Q 243.12 139.32 248.73 140.61
  A 0.62 0.40 15.6 0 1 249.26 141.20
  C 248.90 142.03 246.16 142.33 245.27 142.34
  C 239.35 142.35 234.92 136.89 234.00 131.40
  A 1.09 1.04 -19.4 0 1 234.56 130.30
  Q 238.92 127.95 242.60 124.60
  A 1.69 0.83 -29.5 0 0 243.12 123.84
  Q 243.57 121.92 241.67 122.38
  A 1.48 0.51 -64.7 0 0 240.90 123.17
  L 239.97 124.70
  Q 239.88 124.86 239.75 124.50
  Z"
/>
<path fill="#000000" d="
  M 357.28 60.32
  C 346.90 66.62 340.16 74.91 334.02 85.78
  C 333.00 87.57 332.74 89.92 335.69 89.56
  Q 344.65 88.48 343.01 97.76
  C 340.68 110.99 326.14 122.02 314.32 126.15
  C 313.12 126.57 311.33 127.91 309.75 128.17
  C 306.06 128.77 302.14 130.40 298.56 131.58
  A 0.64 0.44 -12.0 0 1 297.75 131.24
  L 297.75 130.99
  A 0.46 0.36 -12.1 0 1 298.06 130.62
  C 311.11 126.19 324.25 116.81 329.75 103.75
  Q 330.68 101.53 330.77 99.57
  C 331.22 88.82 319.11 102.28 317.23 103.88
  Q 315.90 105.00 316.34 103.32
  C 323.24 76.88 338.55 55.04 368.01 52.25
  Q 372.94 51.78 385.18 51.80
  Q 385.76 51.80 388.02 52.41
  Q 388.51 52.54 388.00 52.52
  Q 381.04 52.27 375.21 53.73
  C 369.40 55.18 362.64 57.08 357.28 60.32
  Z"
/>
<path fill="#000000" d="
  M 171.40 95.78
  Q 170.54 98.50 171.06 99.67
  Q 181.25 122.41 204.50 131.24
  Q 205.08 131.46 204.99 131.86
  A 0.59 0.44 15.7 0 1 204.27 132.14
  Q 191.37 127.99 179.53 121.45
  C 170.74 116.59 165.16 110.08 160.27 100.41
  C 157.69 95.32 157.59 88.55 165.98 90.78
  Q 168.86 91.54 167.52 88.74
  C 159.50 72.02 145.54 61.78 127.73 56.53
  Q 122.22 54.90 115.26 55.25
  A 0.48 0.40 0.2 0 1 114.75 54.82
  C 114.76 54.67 115.01 54.36 115.13 54.33
  C 129.32 50.68 144.75 54.78 156.94 62.26
  Q 162.55 65.71 167.51 71.45
  Q 179.74 85.62 186.84 103.16
  C 187.19 104.03 186.58 104.64 185.80 104.02
  C 182.79 101.62 175.84 94.43 172.06 95.20
  A 0.88 0.87 3.4 0 0 171.40 95.78
  Z"
/>
<path fill="#000000" d="
  M 440.65 60.01
  C 428.75 71.25 412.07 74.38 397.31 66.63
  A 0.89 0.85 -77.8 0 1 396.86 65.89
  C 396.65 58.39 390.55 57.99 384.82 57.19
  C 383.65 57.03 383.89 56.45 384.71 56.36
  C 389.04 55.88 395.81 53.85 398.25 54.79
  C 409.45 59.10 428.59 63.63 440.07 59.10
  Q 442.71 58.07 440.65 60.01
  Z"
/>
<path fill="#000000" d="
  M 68.37 60.09
  C 73.88 64.94 88.47 63.31 94.11 61.14
  Q 94.65 60.94 99.17 58.50
  Q 107.31 54.11 116.21 58.36
  C 116.37 58.44 119.88 60.52 115.75 59.33
  A 3.05 3.04 -49.5 0 0 113.63 59.50
  Q 107.76 62.24 108.09 67.34
  A 1.09 1.06 69.8 0 1 107.69 68.24
  C 95.30 78.08 77.17 70.79 67.42 60.59
  Q 66.84 59.98 67.50 59.81
  A 1.08 0.80 54.5 0 1 68.37 60.09
  Z"
/>
<path fill="#000000" d="
  M 341.64 82.88
  C 350.22 73.17 359.00 64.86 371.82 61.49
  C 376.41 60.29 381.44 61.41 386.21 61.70
  C 387.18 61.76 387.15 62.43 385.99 62.46
  Q 375.16 62.74 366.05 68.13
  C 358.31 72.72 353.35 80.12 346.90 86.54
  A 0.56 0.39 -39.1 0 1 346.13 86.60
  Q 344.95 84.19 342.26 84.00
  Q 340.75 83.88 341.64 82.88
  Z"
/>
<path fill="#000000" d="
  M 125.95 63.07
  C 137.00 63.43 153.22 75.84 159.97 84.24
  Q 160.50 84.89 159.67 84.95
  Q 157.09 85.12 156.37 87.57
  Q 156.04 88.72 155.31 87.78
  Q 144.58 74.17 129.78 66.83
  C 125.73 64.82 121.60 65.10 117.23 65.28
  A 0.70 0.53 -4.8 0 1 116.54 64.84
  C 116.27 63.27 124.90 63.03 125.95 63.07
  Z"
/>
<path fill="#000000" d="
  M 342.00 111.51
  L 342.25 111.50
  A 0.93 0.38 8.9 0 0 342.72 111.39
  C 346.46 108.97 351.14 106.89 353.92 103.87
  C 356.06 101.56 363.15 91.56 354.97 91.47
  Q 352.12 91.44 349.31 91.77
  Q 348.61 91.85 349.04 91.28
  Q 357.30 80.53 368.83 73.33
  Q 378.33 67.41 388.16 68.32
  C 388.42 68.34 389.28 67.98 389.27 68.57
  A 0.58 0.46 -5.3 0 1 388.79 69.03
  C 379.62 70.67 368.50 79.67 362.50 86.52
  A 0.66 0.65 26.1 0 0 362.87 87.59
  C 367.49 88.51 367.77 92.25 365.97 95.98
  Q 359.58 109.25 346.20 114.95
  Q 339.08 117.99 334.30 121.20
  C 333.57 121.69 332.07 124.26 334.45 123.18
  Q 335.04 122.91 335.48 122.80
  C 351.78 118.62 368.03 107.45 374.29 89.98
  Q 374.55 89.27 374.92 89.43
  A 0.70 0.50 -68.7 0 1 375.12 90.23
  C 371.07 101.45 363.63 114.25 353.33 120.73
  C 344.98 126.00 334.03 133.65 324.58 125.45
  A 0.92 0.87 -39.2 0 1 324.77 124.01
  Q 338.73 115.72 345.83 101.04
  A 0.90 0.47 -66.0 0 1 346.56 100.46
  C 347.73 100.81 342.43 110.10 341.82 111.04
  Q 341.51 111.52 342.00 111.51
  Z"
/>
<path fill="#000000" d="
  M 168.63 123.45
  Q 171.28 123.41 169.11 121.88
  C 166.67 120.16 164.76 117.96 161.88 117.02
  C 158.99 116.06 156.41 115.49 153.82 113.99
  Q 141.90 107.14 137.14 94.03
  A 1.34 0.53 63.6 0 1 137.05 93.02
  L 139.15 89.16
  A 1.38 0.47 -9.9 0 1 140.04 88.67
  C 142.16 88.09 140.84 86.22 139.88 85.32
  C 134.03 79.89 122.94 71.52 114.81 70.98
  A 0.91 0.53 0.5 0 1 114.00 70.50
  Q 113.96 70.27 114.06 70.07
  A 0.82 0.52 8.2 0 1 114.73 69.77
  C 117.79 69.75 120.74 69.44 123.67 70.42
  C 129.92 72.53 137.71 75.63 142.48 80.52
  Q 148.42 86.60 154.47 92.58
  C 154.96 93.07 154.77 93.84 154.00 93.49
  C 151.87 92.55 149.33 91.07 147.24 92.34
  C 140.51 96.43 152.78 107.57 156.03 109.53
  Q 159.36 111.52 160.62 112.45
  A 0.92 0.59 43.2 0 0 161.49 112.61
  C 161.95 112.33 161.81 111.63 161.50 111.22
  Q 158.19 106.96 156.18 101.94
  A 0.40 0.33 79.2 0 1 156.48 101.39
  C 157.37 101.47 160.40 107.49 161.36 109.03
  C 165.35 115.44 170.53 120.13 177.18 123.59
  Q 179.82 124.97 177.50 126.83
  C 169.65 133.11 153.47 124.24 147.70 119.29
  C 139.99 112.68 134.33 101.45 129.09 92.60
  A 0.68 0.34 60.6 0 1 129.05 91.82
  Q 129.27 91.71 129.50 91.75
  A 0.64 0.54 -6.8 0 1 129.93 92.03
  C 135.30 101.21 142.63 111.40 151.85 116.90
  C 156.31 119.57 163.32 123.52 168.63 123.45
  Z"
/>
<path fill="#000000" d="
  M 256.70 81.97
  L 251.96 90.19
  A 0.52 0.41 -48.5 0 1 251.17 90.33
  L 245.97 81.78
  A 1.06 0.22 -64.1 0 1 246.20 80.88
  L 250.94 70.45
  Q 251.27 69.72 251.66 70.54
  L 256.50 80.75
  A 1.51 0.58 59.8 0 1 256.70 81.97
  Z
  M 250.27 79.05
  Q 248.90 81.27 250.80 83.26
  A 0.89 0.35 47.1 0 0 251.62 83.65
  Q 252.85 82.74 253.24 81.23
  A 1.15 0.36 -69.6 0 0 253.28 80.46
  L 251.53 76.49
  A 0.44 0.34 -39.8 0 0 250.87 76.51
  Q 250.25 77.23 250.35 78.19
  A 1.24 0.34 79.9 0 1 250.27 79.05
  Z"
/>
<path fill="#000000" d="
  M 385.62 84.21
  C 387.53 75.88 380.09 81.86 376.93 81.33
  Q 376.42 81.24 376.81 80.90
  C 381.45 76.82 387.62 71.89 393.53 71.46
  A 1.95 1.71 53.2 0 1 394.47 71.66
  C 402.56 75.84 408.87 77.09 418.90 76.78
  C 423.66 76.64 427.94 74.86 432.61 73.73
  A 1.14 0.70 -24.1 0 1 433.45 73.84
  Q 433.89 74.17 433.01 74.53
  C 420.36 79.57 405.00 85.40 390.24 86.94
  Q 388.22 87.15 386.96 86.68
  Q 385.21 86.04 385.62 84.21
  Z"
/>
<path fill="#000000" d="
  M 77.48 75.83
  C 83.81 77.93 91.79 79.26 98.41 78.23
  C 102.66 77.56 106.57 74.67 110.70 72.86
  A 2.71 2.68 43.2 0 1 112.69 72.81
  Q 121.21 75.94 127.92 82.10
  A 0.66 0.48 43.1 0 1 128.08 82.91
  C 127.81 83.18 127.10 83.00 126.80 82.68
  C 123.16 78.82 117.22 83.08 120.14 87.22
  Q 120.96 88.37 119.55 88.46
  Q 113.93 88.81 108.53 87.60
  C 104.00 86.57 99.80 85.93 96.99 84.77
  Q 87.18 80.73 77.29 76.88
  A 0.95 0.60 15.2 0 1 76.69 76.22
  C 76.68 75.66 77.08 75.70 77.48 75.83
  Z"
/>
<path fill="#000000" d="
  M 378.69 94.69
  Q 379.28 93.18 380.55 94.11
  A 1.76 1.25 56.6 0 0 381.42 94.45
  C 393.58 95.10 406.31 91.08 417.14 85.84
  A 0.44 0.29 -21.2 0 1 417.71 85.96
  C 417.83 86.55 403.86 96.94 403.26 97.40
  Q 397.81 101.51 392.30 104.39
  C 389.93 105.62 381.94 110.27 379.74 110.28
  Q 379.13 110.28 378.79 110.44
  Q 371.92 113.64 364.43 114.69
  Q 363.93 114.76 364.31 114.43
  Q 374.18 106.16 378.69 94.69
  Z"
/>
<path fill="#000000" d="
  M 106.01 94.46
  C 110.47 95.17 115.58 96.06 120.08 95.64
  C 123.49 95.32 125.47 92.82 127.67 97.45
  Q 132.18 106.93 139.83 114.21
  Q 141.59 115.88 139.20 115.40
  C 122.23 111.97 103.47 101.67 91.04 88.98
  Q 90.15 88.07 90.97 87.85
  A 1.33 0.91 46.1 0 1 91.88 88.04
  Q 95.22 90.12 98.91 91.40
  C 101.21 92.19 104.20 94.17 106.01 94.46
  Z"
/>
<path fill="#000000" d="
  M 361.42 120.64
  A 1.42 1.41 -71.3 0 1 362.44 120.13
  C 373.94 119.59 383.81 116.46 393.75 110.79
  A 0.35 0.22 -27.5 0 1 394.19 110.82
  L 394.25 111.00
  A 0.38 0.20 -31.6 0 1 394.06 111.32
  C 377.91 122.58 367.93 128.92 353.31 135.06
  Q 347.53 137.48 341.28 138.10
  Q 340.78 138.15 341.20 137.86
  C 348.63 132.75 355.30 128.06 361.42 120.64
  Z"
/>
<path fill="#000000" d="
  M 144.81 124.94
  C 149.41 128.84 154.68 134.34 159.92 137.13
  A 0.35 0.29 29.8 0 1 160.09 137.58
  C 159.29 138.78 149.74 135.57 148.18 134.83
  Q 130.36 126.47 114.77 114.46
  A 0.61 0.37 33.7 0 1 114.51 113.90
  Q 114.62 113.65 115.10 113.91
  Q 127.52 120.62 141.56 120.90
  A 0.87 0.85 76.2 0 1 142.30 121.36
  Q 143.70 123.99 144.81 124.94
  Z"
/>
<path fill="#000000" d="
  M 178.31 144.20
  L 174.38 139.14
  A 1.71 1.23 69.7 0 0 173.49 138.54
  L 167.76 137.45
  Q 167.11 137.33 166.89 137.18
  C 160.07 132.53 153.05 128.24 146.89 122.74
  A 1.08 0.60 31.8 0 1 146.49 122.02
  C 146.52 121.45 147.13 121.80 147.38 122.01
  C 156.19 129.31 167.29 134.79 178.51 133.61
  A 0.37 0.31 4.7 0 1 178.92 134.02
  Q 177.06 138.78 180.42 142.60
  Q 181.98 144.38 183.58 142.80
  Q 186.57 139.83 183.95 135.92
  C 183.73 135.60 183.63 134.54 183.84 134.42
  A 0.67 0.39 62.8 0 1 184.52 134.86
  C 186.78 139.48 191.54 143.15 195.88 146.27
  A 0.33 0.31 -42.2 0 1 195.84 146.81
  C 192.98 148.49 191.67 151.50 189.09 153.66
  A 1.43 1.41 24.9 0 1 188.19 153.98
  C 181.92 153.98 175.79 146.99 171.96 142.55
  Q 171.65 142.20 172.19 142.21
  A 0.91 0.66 61.3 0 1 172.72 142.46
  C 175.58 145.13 188.29 155.95 190.05 146.74
  A 1.12 1.00 -60.3 0 0 189.87 145.90
  L 186.92 142.07
  Q 186.23 141.18 186.34 142.29
  Q 186.81 146.77 182.23 146.08
  Q 179.44 145.66 178.31 144.20
  Z"
/>
<path fill="#000000" d="
  M 316.39 141.83
  Q 316.59 140.63 315.61 141.35
  Q 312.52 143.67 311.61 147.41
  A 1.54 1.22 -54.9 0 0 311.66 148.27
  C 315.02 156.60 327.70 144.12 330.31 140.54
  Q 330.75 139.94 330.98 140.37
  A 0.99 0.68 -53.6 0 1 330.95 141.14
  C 327.97 147.87 322.72 150.10 316.52 153.12
  Q 313.02 154.83 311.10 151.69
  Q 309.30 148.74 306.65 146.61
  A 1.70 0.76 50.3 0 0 305.79 146.19
  C 303.92 146.03 304.80 145.05 305.87 144.92
  C 310.99 144.27 314.75 139.89 317.33 135.82
  Q 317.60 135.40 317.89 135.54
  A 0.70 0.29 -71.2 0 1 317.94 136.27
  Q 317.16 138.72 317.56 141.22
  Q 317.90 143.25 319.81 142.36
  Q 324.78 140.05 324.78 134.52
  A 0.60 0.55 -88.2 0 1 325.37 133.92
  C 330.86 134.23 334.39 133.40 339.57 131.65
  C 344.80 129.89 349.69 126.56 354.72 123.97
  Q 355.19 123.72 354.88 124.15
  C 353.37 126.27 349.55 127.99 346.47 130.24
  Q 342.41 133.20 334.12 136.62
  C 330.42 138.13 328.89 136.69 326.45 141.19
  C 324.79 144.24 315.04 150.30 316.39 141.83
  Z"
/>
<path fill="#000000" d="
  M 186.98 131.90
  C 192.24 134.77 199.54 137.28 205.60 136.94
  A 0.58 0.55 88.1 0 1 206.18 137.51
  Q 206.27 141.38 208.37 144.67
  Q 208.67 145.15 207.91 145.06
  Q 205.72 144.81 203.63 144.55
  C 197.50 143.77 190.44 137.30 186.66 132.68
  C 186.49 132.47 186.40 132.15 186.53 131.95
  A 0.38 0.28 30.1 0 1 186.98 131.90
  Z"
/>
<path fill="#000000" d="
  M 295.10 143.24
  C 295.14 141.86 295.85 135.89 298.79 137.08
  Q 299.20 137.24 299.74 137.21
  Q 308.00 136.60 314.91 132.07
  A 0.87 0.24 7.4 0 1 315.50 131.99
  L 315.74 132.00
  Q 316.18 132.01 315.81 132.34
  C 309.74 137.68 306.14 142.56 297.89 145.31
  Q 295.00 146.28 295.10 143.24
  Z"
/>
<path fill="#000000" d="
  M 176.94 157.85
  Q 178.67 158.90 176.85 158.62
  C 175.26 158.37 173.54 158.42 172.07 157.92
  Q 164.11 155.23 156.91 150.84
  C 154.05 149.10 150.47 144.42 145.27 141.65
  A 0.79 0.44 27.8 0 1 144.79 140.91
  C 144.91 140.68 145.78 140.73 146.01 140.87
  Q 154.59 146.19 164.66 144.89
  A 0.79 0.66 71.4 0 1 165.38 145.33
  Q 169.35 153.24 176.94 157.85
  Z"
/>
<path fill="#000000" d="
  M 322.19 158.90
  C 325.83 156.29 334.24 149.86 335.47 145.53
  A 1.03 0.41 -77.4 0 1 336.00 144.75
  Q 336.45 144.69 336.69 145.06
  A 1.36 1.18 -7.9 0 0 337.54 145.61
  C 342.56 146.59 349.69 143.83 354.51 141.54
  C 354.72 141.44 354.99 141.10 355.27 141.26
  A 0.34 0.28 -49.7 0 1 355.26 141.76
  C 344.86 151.19 335.83 157.30 322.28 159.13
  Q 321.79 159.19 322.19 158.90
  Z"
/>
<path fill="#000000" d="
  M 253.50 144.76
  L 256.76 144.74
  Q 258.54 144.74 257.18 145.94
  Q 250.96 151.48 245.00 145.42
  Q 244.38 144.79 245.31 144.79
  L 249.75 144.76
  A 1.42 1.18 19.2 0 0 250.68 144.41
  Q 251.55 143.56 252.57 144.44
  A 1.51 1.18 -18.9 0 0 253.50 144.76
  Z"
/>
<path fill="#000000" d="
  M 187.31 156.44
  C 192.86 157.74 197.24 151.67 202.56 149.92
  A 1.06 0.69 -27.7 0 1 203.46 150.00
  Q 203.84 150.32 203.21 150.73
  C 197.76 154.25 197.70 161.13 198.62 166.98
  Q 198.72 167.65 198.40 168.01
  A 0.43 0.35 59.4 0 1 197.77 167.78
  Q 196.06 162.92 196.68 157.83
  Q 196.91 156.02 195.06 157.26
  C 190.43 160.38 186.98 159.57 182.08 156.83
  C 181.17 156.31 173.47 152.44 173.53 151.97
  A 0.41 0.30 17.7 0 1 174.07 151.79
  Q 182.38 155.28 187.31 156.44
  Z"
/>
<path fill="#000000" d="
  M 304.56 153.94
  C 308.67 159.10 320.74 155.10 325.57 152.94
  Q 326.15 152.69 325.87 153.22
  C 325.01 154.85 316.46 157.57 314.73 158.11
  C 311.35 159.16 308.49 158.53 305.03 158.26
  A 0.72 0.67 -78.7 0 0 304.33 158.77
  L 302.04 166.01
  A 0.39 0.30 -83.3 0 1 301.80 166.26
  C 301.14 166.39 302.06 162.44 302.14 162.09
  C 303.17 157.60 301.58 153.77 298.05 150.89
  C 297.76 150.66 297.60 150.38 297.82 150.07
  A 0.60 0.41 18.6 0 1 298.38 149.91
  Q 301.93 150.63 304.56 153.94
  Z"
/>
<path fill="#000000" d="
  M 209.05 152.26
  Q 209.59 151.61 209.80 152.23
  L 210.74 155.00
  A 0.86 0.51 -32.6 0 1 210.36 155.76
  Q 207.61 157.88 205.89 160.83
  C 205.34 161.76 204.44 161.94 204.85 160.26
  Q 205.89 156.05 209.05 152.26
  Z"
/>
<path fill="#000000" d="
  M 291.44 152.69
  Q 291.47 152.43 291.59 152.28
  A 0.33 0.26 50.1 0 1 292.07 152.38
  Q 294.61 156.45 295.84 161.09
  A 0.85 0.40 70.5 0 1 295.76 161.85
  Q 295.50 162.07 295.16 161.39
  Q 293.56 158.16 290.84 155.84
  A 1.24 0.94 25.4 0 1 290.41 155.01
  Q 290.39 153.68 291.44 152.69
  Z"
/>
<path fill="#000000" d="
  M 212.09 160.08
  C 217.76 165.38 210.32 168.32 206.27 169.31
  A 0.38 0.29 -4.5 0 1 205.79 169.00
  Q 206.91 163.50 211.23 160.01
  A 0.69 0.62 46.6 0 1 212.09 160.08
  Z"
/>
<path fill="#000000" d="
  M 286.89 161.21
  Q 286.97 158.91 288.82 160.38
  Q 293.12 163.80 292.19 169.22
  A 0.71 0.47 -79.0 0 1 291.57 169.85
  Q 286.97 168.73 285.36 164.34
  A 0.96 0.61 68.1 0 1 285.55 163.30
  Q 286.84 162.63 286.89 161.21
  Z"
/>
<path fill="#000000" d="
  M 334.95 205.11
  C 329.42 210.32 314.61 224.42 306.65 222.71
  Q 302.85 221.89 305.34 218.91
  C 313.56 209.02 327.34 202.32 339.18 198.05
  Q 341.36 197.27 342.88 195.69
  Q 349.97 188.35 356.61 180.61
  C 358.48 178.42 360.81 173.48 364.03 172.05
  C 365.57 171.37 365.41 172.93 364.93 173.68
  Q 356.43 187.12 352.53 194.77
  Q 352.05 195.73 352.98 196.69
  A 0.39 0.37 52.2 0 1 352.92 197.28
  C 347.70 200.50 346.01 213.67 346.29 219.30
  A 1.14 0.90 73.4 0 1 345.94 220.19
  Q 345.01 220.92 344.06 220.20
  A 1.15 0.53 -78.7 0 1 343.84 219.26
  Q 344.84 208.27 349.50 198.30
  A 0.41 0.36 -75.4 0 0 349.21 197.73
  C 342.29 197.40 339.57 200.76 334.95 205.11
  Z
  M 354.29 185.81
  C 352.57 187.55 343.85 196.17 344.60 196.66
  A 0.95 0.94 -40.4 0 0 345.50 196.73
  Q 347.52 195.83 349.75 195.87
  A 0.99 0.86 -74.4 0 0 350.58 195.32
  L 355.10 186.33
  Q 356.45 183.63 354.29 185.81
  Z
  M 308.37 217.29
  Q 306.44 219.17 309.02 220.70
  A 1.12 1.05 -38.9 0 0 309.94 220.77
  C 319.80 217.25 329.09 208.72 336.56 201.77
  Q 339.54 199.00 335.76 200.50
  C 325.73 204.49 316.12 209.71 308.37 217.29
  Z"
/>
<path fill="#000000" d="
  M 180.74 189.30
  L 185.25 189.78
  A 1.16 0.50 1.9 0 1 186.15 190.20
  Q 187.11 192.62 184.39 193.09
  A 0.83 0.34 -11.4 0 1 183.56 192.93
  Q 183.39 192.44 183.76 192.01
  A 0.61 0.38 20.3 0 0 183.23 191.33
  L 179.02 190.43
  A 0.88 0.37 -63.6 0 0 178.38 190.98
  C 175.20 196.87 171.52 202.42 172.27 209.45
  A 1.14 0.46 88.3 0 0 172.67 210.36
  L 174.58 211.15
  A 0.51 0.48 27.9 0 1 174.83 211.87
  C 172.94 214.71 169.27 216.57 168.55 211.40
  Q 168.03 207.67 170.58 201.25
  A 0.56 0.41 -77.7 0 0 170.24 200.49
  L 166.51 200.79
  A 1.05 0.42 -72.5 0 0 165.92 201.51
  Q 163.37 208.00 156.58 208.52
  C 151.26 208.92 155.14 204.27 154.70 203.63
  A 0.98 0.50 -21.9 0 0 153.73 203.54
  Q 142.91 207.22 138.62 197.06
  A 1.44 1.41 -47.3 0 1 138.59 196.04
  C 140.06 191.91 133.41 199.40 133.35 199.47
  C 130.89 202.08 129.17 205.21 125.16 207.02
  Q 122.35 208.28 121.74 205.25
  C 120.68 200.00 122.07 195.85 122.92 191.18
  Q 123.49 188.08 124.36 185.36
  Q 124.96 183.49 123.26 184.47
  Q 114.70 189.47 107.57 196.19
  C 101.57 201.85 95.44 210.91 88.94 217.95
  C 87.51 219.51 83.55 220.88 86.46 216.99
  C 87.99 214.94 89.41 212.77 91.13 210.92
  C 100.92 200.42 105.96 195.00 110.92 183.44
  C 111.10 183.02 112.87 174.26 114.72 177.31
  Q 115.35 178.36 114.45 180.69
  Q 112.05 186.86 108.25 192.28
  A 0.89 0.47 -52.9 0 0 108.10 193.20
  C 108.72 193.81 130.21 173.82 127.48 185.88
  C 126.55 189.95 123.58 200.49 125.40 204.09
  A 1.03 1.03 53.5 0 0 127.07 204.34
  C 131.20 200.01 134.96 195.57 139.65 191.85
  Q 141.02 190.76 141.24 192.50
  C 142.65 203.64 152.79 205.91 160.05 198.02
  A 1.90 1.78 36.5 0 1 162.38 197.75
  Q 166.65 200.37 171.56 198.46
  A 1.27 0.61 -73.4 0 0 172.12 197.84
  L 175.48 191.23
  Q 175.90 190.41 175.01 190.47
  Q 161.25 191.34 147.68 193.67
  C 146.00 193.96 146.46 192.59 147.64 192.32
  Q 151.29 191.50 155.01 191.04
  Q 165.63 189.74 175.01 189.20
  A 3.37 2.58 10.4 0 0 177.46 187.95
  Q 180.66 182.98 185.78 180.02
  A 0.54 0.44 64.0 0 1 186.45 180.33
  C 186.81 181.17 181.31 187.10 180.37 188.39
  A 0.58 0.56 -68.2 0 0 180.74 189.30
  Z
  M 160.28 201.00
  C 159.68 202.18 157.03 205.76 160.24 205.77
  Q 162.44 205.77 163.10 203.06
  Q 163.48 201.54 162.17 200.55
  A 1.28 1.26 -57.8 0 0 160.28 201.00
  Z"
/>
<path fill="#000000" d="
  M 413.04 205.22
  A 1.34 1.27 -28.8 0 0 415.00 205.73
  L 420.33 202.08
  A 1.40 0.54 -42.0 0 1 421.24 201.73
  C 421.92 201.84 421.64 202.40 421.33 202.71
  C 418.55 205.58 412.26 211.15 408.76 206.77
  A 0.66 0.64 59.2 0 0 408.00 206.57
  C 405.25 207.74 396.16 212.75 396.57 206.44
  A 0.49 0.46 -6.5 0 0 395.95 205.98
  L 391.91 207.11
  A 1.49 0.43 -21.2 0 1 390.99 207.19
  Q 386.02 205.65 385.87 200.22
  Q 385.85 199.19 384.99 199.96
  C 383.56 201.25 376.81 209.86 376.47 209.99
  C 374.40 210.75 377.51 204.32 377.58 204.18
  Q 378.33 202.71 376.74 203.24
  L 364.21 207.49
  A 1.57 1.30 2.2 0 0 363.41 208.10
  Q 359.76 214.03 356.91 220.37
  C 356.19 221.97 352.84 224.82 353.84 220.04
  A 0.56 0.54 16.4 0 0 353.48 219.41
  C 349.69 218.06 351.36 211.06 352.07 208.89
  C 354.54 201.29 362.79 182.38 371.53 179.14
  A 0.55 0.43 -11.9 0 1 372.26 179.50
  L 372.26 179.75
  A 1.26 1.00 72.5 0 1 371.96 180.54
  Q 360.59 192.13 355.07 207.35
  C 354.42 209.16 353.77 212.87 354.46 214.22
  Q 355.45 216.15 356.18 214.27
  Q 358.78 207.60 361.77 201.12
  C 363.27 197.86 364.03 195.51 367.10 193.30
  A 0.99 0.86 -50.0 0 1 367.99 193.16
  Q 368.99 193.57 368.48 194.46
  Q 363.41 203.17 358.69 212.08
  A 0.96 0.51 -56.5 0 0 358.61 212.93
  C 358.84 213.23 359.29 212.89 359.45 212.60
  C 362.78 206.42 367.09 198.33 373.33 194.72
  A 1.48 0.65 -39.0 0 1 374.25 194.47
  Q 375.44 194.71 375.99 195.75
  A 1.23 1.07 44.8 0 1 376.06 196.72
  Q 374.73 199.93 372.50 202.66
  Q 372.18 203.05 372.67 202.99
  Q 375.99 202.57 378.73 200.91
  A 1.76 1.53 -89.8 0 0 379.36 200.19
  C 382.65 193.21 388.01 181.62 392.33 180.08
  C 393.79 179.56 393.32 181.29 392.89 181.91
  Q 385.25 193.02 382.43 198.68
  Q 381.60 200.36 382.71 200.12
  C 383.79 199.90 384.87 197.96 385.68 197.66
  C 391.27 195.55 387.87 207.10 396.33 204.48
  Q 397.80 204.03 399.44 202.17
  Q 403.12 198.01 408.83 196.37
  Q 411.81 195.52 411.56 198.48
  Q 411.34 201.23 408.91 202.41
  A 0.56 0.47 -17.4 0 1 408.12 202.08
  Q 407.99 200.56 406.84 199.67
  A 1.18 0.39 -28.2 0 0 405.81 199.85
  C 404.18 200.61 400.00 203.59 400.66 205.72
  C 401.37 208.03 406.98 205.09 410.07 203.66
  A 1.49 0.52 -32.3 0 1 411.03 203.44
  Q 412.44 203.80 413.04 205.22
  Z
  M 366.2238 204.8003
  A 4.74 1.25 132.4 0 0 370.3431 202.1429
  A 4.74 1.25 132.4 0 0 372.6162 197.7997
  A 4.74 1.25 132.4 0 0 368.4969 200.4571
  A 4.74 1.25 132.4 0 0 366.2238 204.8003
  Z"
/>
<path fill="#000000" d="
  M 256.74 204.18
  C 259.06 202.74 263.51 197.07 264.21 203.15
  A 1.95 1.94 -88.2 0 0 265.78 204.83
  C 268.10 205.26 269.07 203.96 270.47 202.09
  Q 274.19 197.14 280.45 197.11
  C 282.71 197.10 282.75 199.16 281.48 200.43
  Q 278.23 203.65 273.49 203.98
  Q 271.16 204.15 272.58 205.43
  Q 274.38 207.06 276.74 206.08
  Q 284.02 203.07 290.60 198.76
  A 1.36 0.99 -49.7 0 1 291.51 198.54
  Q 292.47 198.75 291.28 199.52
  C 288.01 201.66 270.85 213.35 268.62 206.72
  A 0.66 0.63 78.9 0 0 267.99 206.27
  C 265.14 206.45 260.01 207.51 260.45 203.94
  Q 260.65 202.35 259.55 203.52
  C 258.83 204.29 251.23 211.10 252.78 204.72
  C 252.95 204.00 255.12 200.85 252.34 202.58
  C 250.82 203.53 245.54 211.91 243.31 209.67
  A 1.14 0.65 -68.9 0 1 243.17 208.73
  Q 244.19 204.58 246.44 200.93
  Q 246.82 200.31 246.06 200.37
  L 241.26 200.76
  A 1.09 0.40 -72.3 0 0 240.67 201.52
  Q 237.93 208.62 230.01 208.28
  Q 228.57 208.22 228.75 206.46
  Q 228.93 204.81 227.54 205.52
  Q 218.36 210.22 216.65 200.05
  A 0.40 0.25 -30.4 0 0 216.08 200.03
  Q 211.35 203.91 208.35 209.06
  C 206.91 211.53 206.46 209.12 207.03 207.77
  Q 209.32 202.31 216.30 188.75
  Q 219.21 183.10 222.84 180.28
  A 1.24 1.02 -54.7 0 1 223.75 180.03
  Q 224.99 180.27 224.20 181.47
  Q 215.94 194.17 212.41 200.67
  A 0.54 0.39 -57.7 0 0 212.45 201.29
  C 212.79 201.54 214.80 199.33 215.13 199.00
  C 221.78 192.35 218.88 207.12 226.85 204.64
  C 230.05 203.64 232.42 200.32 234.78 197.79
  A 1.88 1.44 -44.3 0 1 237.27 197.49
  C 239.37 200.06 242.73 199.28 246.59 198.65
  A 0.73 0.58 85.9 0 0 247.08 197.94
  Q 247.01 195.51 249.79 195.31
  A 1.37 1.26 -85.3 0 1 251.08 196.97
  Q 250.19 201.00 248.67 203.12
  C 247.25 205.09 249.16 204.46 249.87 203.51
  Q 252.49 199.99 256.31 197.78
  Q 257.72 196.97 257.43 198.55
  L 256.42 203.96
  Q 256.33 204.43 256.74 204.18
  Z
  M 279.8036 199.6789
  A 3.30 1.13 -25.7 0 0 276.3400 200.0918
  A 3.30 1.13 -25.7 0 0 273.8564 202.5411
  A 3.30 1.13 -25.7 0 0 277.3200 202.1282
  A 3.30 1.13 -25.7 0 0 279.8036 199.6789
  Z
  M 235.08 200.92
  C 234.72 201.61 231.31 207.32 235.36 205.35
  Q 239.53 203.31 237.04 200.64
  A 1.21 1.21 -51.8 0 0 235.08 200.92
  Z"
/>
<path fill="#000000" d="
  M 196.71 202.76
  C 198.38 202.58 201.67 194.05 204.98 198.37
  A 0.83 0.78 64.9 0 0 205.76 198.68
  L 208.49 198.19
  Q 209.30 198.05 208.80 198.57
  Q 206.17 201.32 202.32 200.33
  Q 200.24 199.79 199.35 201.45
  Q 197.19 205.52 194.07 208.73
  C 193.10 209.72 190.47 210.76 190.63 208.22
  C 190.74 206.56 191.98 204.35 192.61 202.77
  A 1.62 0.60 -76.0 0 1 193.18 201.93
  Q 193.72 201.60 193.76 201.02
  A 0.64 0.58 -0.2 0 0 193.07 200.40
  L 189.24 200.66
  A 1.10 0.80 -77.0 0 0 188.47 201.33
  Q 185.81 207.98 178.77 208.52
  C 171.46 209.08 180.77 199.40 181.98 198.22
  Q 183.70 196.54 185.37 198.27
  C 187.12 200.09 194.63 198.71 196.97 198.30
  Q 198.38 198.05 197.73 199.46
  L 196.42 202.30
  Q 196.18 202.81 196.71 202.76
  Z
  M 185.15 201.04
  C 182.69 198.26 181.22 203.72 181.32 205.18
  A 0.63 0.35 85.3 0 0 181.74 205.80
  Q 185.07 205.29 185.63 202.04
  A 1.46 0.59 42.2 0 0 185.15 201.04
  Z"
/>
</svg>
